<svg width="48" height="48" viewBox="0 0 48 48" fill="none" xmlns="http://www.w3.org/2000/svg">
<g clip-path="url(#clip0_45_904)">
<path d="M40 0H8C5.87827 0 3.84344 0.842855 2.34315 2.34315C0.842855 3.84344 0 5.87827 0 8L0 32C0 34.1217 0.842855 36.1566 2.34315 37.6569C3.84344 39.1571 5.87827 40 8 40H13.8L22.702 47.526C23.0631 47.8316 23.5209 47.9993 23.994 47.9993C24.4671 47.9993 24.9249 47.8316 25.286 47.526L34.2 40H40C42.1217 40 44.1566 39.1571 45.6569 37.6569C47.1571 36.1566 48 34.1217 48 32V8C48 5.87827 47.1571 3.84344 45.6569 2.34315C44.1566 0.842855 42.1217 0 40 0ZM14 10H24C24.5304 10 25.0391 10.2107 25.4142 10.5858C25.7893 10.9609 26 11.4696 26 12C26 12.5304 25.7893 13.0391 25.4142 13.4142C25.0391 13.7893 24.5304 14 24 14H14C13.4696 14 12.9609 13.7893 12.5858 13.4142C12.2107 13.0391 12 12.5304 12 12C12 11.4696 12.2107 10.9609 12.5858 10.5858C12.9609 10.2107 13.4696 10 14 10ZM34 30H14C13.4696 30 12.9609 29.7893 12.5858 29.4142C12.2107 29.0391 12 28.5304 12 28C12 27.4696 12.2107 26.9609 12.5858 26.5858C12.9609 26.2107 13.4696 26 14 26H34C34.5304 26 35.0391 26.2107 35.4142 26.5858C35.7893 26.9609 36 27.4696 36 28C36 28.5304 35.7893 29.0391 35.4142 29.4142C35.0391 29.7893 34.5304 30 34 30ZM34 22H14C13.4696 22 12.9609 21.7893 12.5858 21.4142C12.2107 21.0391 12 20.5304 12 20C12 19.4696 12.2107 18.9609 12.5858 18.5858C12.9609 18.2107 13.4696 18 14 18H34C34.5304 18 35.0391 18.2107 35.4142 18.5858C35.7893 18.9609 36 19.4696 36 20C36 20.5304 35.7893 21.0391 35.4142 21.4142C35.0391 21.7893 34.5304 22 34 22Z" fill="#52EA73"/>
</g>
<defs>
<clipPath id="clip0_45_904">
<rect width="48" height="48" fill="white"/>
</clipPath>
</defs>
</svg>
