<svg width="49" height="48" viewBox="0 0 49 48" fill="none" xmlns="http://www.w3.org/2000/svg">
<g clip-path="url(#clip0_45_892)">
<path d="M40.5 0H8.5C4.088 0 0.5 3.588 0.5 8V32C0.5 36.412 4.088 40 8.5 40H14.346L21.842 46.314C22.606 46.992 23.566 47.328 24.516 47.328C25.452 47.328 26.378 47.004 27.102 46.36L34.796 40H40.5C44.912 40 48.5 36.412 48.5 32V8C48.5 3.588 44.912 0 40.5 0ZM35.904 15.424L24.318 26.838C23.546 27.612 22.526 27.998 21.504 27.998C20.482 27.998 19.454 27.608 18.672 26.828L13.108 21.436C12.314 20.666 12.294 19.4 13.064 18.608C13.834 17.814 15.1 17.796 15.892 18.564L21.478 23.978L33.096 12.576C33.888 11.802 35.15 11.81 35.924 12.598C36.7 13.384 36.692 14.648 35.904 15.424Z" fill="#52EA73"/>
</g>
<defs>
<clipPath id="clip0_45_892">
<rect width="48" height="48" fill="white" transform="translate(0.5)"/>
</clipPath>
</defs>
</svg>
