<svg width="49" height="48" viewBox="0 0 49 48" fill="none" xmlns="http://www.w3.org/2000/svg">
<g clip-path="url(#clip0_45_910)">
<path d="M24.5 15.8921C26.1823 15.8921 27.546 14.5283 27.546 12.8461C27.546 11.1638 26.1823 9.80005 24.5 9.80005C22.8178 9.80005 21.454 11.1638 21.454 12.8461C21.454 14.5283 22.8178 15.8921 24.5 15.8921Z" fill="black"/>
<path d="M40.5 0.00146484H8.49996C4.05256 0.0366211 0.47337 3.66597 0.499995 8.11346V32.4534C0.47337 36.9012 4.05228 40.5311 8.49996 40.5674H14.3459L21.8419 46.9674C23.3267 48.3243 25.5956 48.3442 27.1039 47.0134L34.7939 40.5654H40.4999C44.9476 40.5291 48.5265 36.8992 48.4999 32.4514V8.11346C48.5266 3.66597 44.9474 0.0366211 40.5 0.00146484ZM24.5 6.08547C33.73 6.3295 33.728 20.0395 24.5 20.2855C15.27 20.0394 15.272 6.3354 24.5 6.08547ZM32.998 34.4175C31.9277 34.6906 30.8387 34.0442 30.5656 32.974C30.5644 32.9691 30.5632 32.9643 30.562 32.9595C29.5383 29.611 25.9939 27.7263 22.6454 28.75C20.6298 29.3662 19.0522 30.9438 18.436 32.9595C18.1565 34.0287 17.0632 34.6689 15.994 34.3894C14.9247 34.11 14.2845 33.0167 14.564 31.9474C16.1105 26.4594 21.8131 23.2641 27.3012 24.8106C30.7601 25.7853 33.4632 28.4885 34.438 31.9474C34.7164 33.0263 34.074 34.1282 32.998 34.4175Z" fill="#52EA73"/>
</g>
<defs>
<clipPath id="clip0_45_910">
<rect width="48" height="48" fill="white" transform="translate(0.5)"/>
</clipPath>
</defs>
</svg>
