<svg width="49" height="48" viewBox="0 0 49 48" fill="none" xmlns="http://www.w3.org/2000/svg">
<g clip-path="url(#clip0_45_917)">
<path d="M38.5 0H10.5C4.98 0 0.5 4.48 0.5 10V30C0.5 35.52 4.98 40 10.5 40H14.34L21.84 46.32C22.6 47 23.56 47.34 24.52 47.34C25.48 47.34 26.38 47.02 27.1 46.38L34.8 40.02H38.5C44.02 40.02 48.5 35.54 48.5 30.02V10C48.5 4.48 44.02 0 38.5 0ZM27.26 30H26.5C26.5 31.1 25.6 32 24.5 32C23.4 32 22.5 31.1 22.5 30H21.96C19.82 30 17.84 28.86 16.76 27C16.2 26.04 16.54 24.82 17.48 24.26C18.44 23.7 19.66 24.04 20.22 24.98C20.58 25.6 21.24 25.98 21.96 25.98H27.24C27.92 25.98 28.48 25.42 28.48 24.74C28.48 24.12 28.04 23.6 27.44 23.5L20.86 22.4C18.32 21.98 16.48 19.8 16.48 17.22C16.48 14.32 18.84 11.98 21.72 11.98H22.48C22.48 10.88 23.38 9.98 24.48 9.98C25.58 9.98 26.48 10.88 26.48 11.98H27.02C29.16 11.98 31.14 13.12 32.22 14.98C32.78 15.94 32.44 17.16 31.5 17.72C30.54 18.28 29.32 17.94 28.76 17C28.4 16.38 27.74 16 27.02 16H21.74C21.06 16 20.5 16.56 20.5 17.24C20.5 17.86 20.94 18.38 21.54 18.48L28.1 19.58C30.64 20 32.48 22.18 32.48 24.76C32.48 27.66 30.12 30 27.24 30H27.26Z" fill="#52EA73"/>
</g>
<defs>
<clipPath id="clip0_45_917">
<rect width="48" height="48" fill="white" transform="translate(0.5)"/>
</clipPath>
</defs>
</svg>
