<svg width="75" height="75" viewBox="0 0 75 75" fill="none" xmlns="http://www.w3.org/2000/svg">
<g clip-path="url(#clip0_69_188)">
<path d="M57.9717 -0.129883H17.0283C7.55204 -0.129883 -0.130005 7.55217 -0.130005 17.0285V57.9718C-0.130005 67.4481 7.55204 75.1301 17.0283 75.1301H57.9717C67.448 75.1301 75.13 67.4481 75.13 57.9718V17.0285C75.13 7.55217 67.448 -0.129883 57.9717 -0.129883Z" fill="#1D1F1E"/>
<mask id="mask0_69_188" style="mask-type:alpha" maskUnits="userSpaceOnUse" x="11" y="12" width="53" height="51">
<path d="M63.415 12.1768H11.7033V62.9418H63.415V12.1768Z" fill="black"/>
</mask>
<g mask="url(#mask0_69_188)">
<path d="M23.9327 33.3532L30.363 12.2253H41.6157L34.7263 33.3532H23.9327Z" fill="#52EA73"/>
<path d="M15.122 26.9238L32.8213 39.3846L29.3692 50.0949L11.8108 37.1969L15.122 26.9238Z" fill="#52EA73"/>
<path d="M20.5437 56.3766L38.2964 43.6125L47.2618 50.413L29.1432 62.8996L20.5437 56.3766Z" fill="#52EA73"/>
<path d="M50.6518 60.2165L43.3286 39.6142L52.3543 32.8938L59.3091 53.7704L50.6518 60.2165Z" fill="#52EA73"/>
<path d="M63.4026 33.0164L41.5405 33.3711L38.0571 22.6709L60.0616 22.753L63.4026 33.0164Z" fill="#52EA73"/>
</g>
</g>
<defs>
<clipPath id="clip0_69_188">
<rect width="75" height="75" fill="white"/>
</clipPath>
</defs>
</svg>
