<svg width="18" height="10" viewBox="0 0 18 10" fill="none" xmlns="http://www.w3.org/2000/svg">
<path d="M16.8083 3.13082C16.8083 3.87558 16.245 4.4817 15.5513 4.4817C14.8583 4.4817 14.2943 3.87558 14.2943 3.13082C14.2943 2.38607 14.8583 1.77995 15.5513 1.77995C16.245 1.77995 16.8083 2.38607 16.8083 3.13082ZM18 3.13082C18 4.58245 16.902 5.77616 15.5228 5.76084L13.3688 7.48651L13.3643 7.48813C13.3583 8.59156 12.531 9.48945 11.5005 9.49993C10.5705 9.50799 9.80779 8.79709 9.63754 7.87098L2.91608 4.83312C2.62358 5.03946 2.27558 5.16278 1.90059 5.16681C0.852092 5.17648 0.00984672 4.27294 9.67764e-05 3.16306C-0.0104032 2.03868 0.834842 1.12063 1.88334 1.12063C2.79308 1.12063 3.55433 1.81622 3.72758 2.74313L10.4558 5.78341C10.7678 5.56418 11.1278 5.4465 11.5268 5.45536L13.1055 3.08085C13.1303 1.65179 14.2155 0.5 15.552 0.5C16.9035 0.5 18 1.67758 18 3.13082ZM2.40458 4.6026L1.48509 4.18751C0.948092 3.9449 0.696093 3.28074 0.921842 2.70444C1.14759 2.12734 1.76559 1.85652 2.30258 2.09913L3.21083 2.50939C2.98358 1.96291 2.47283 1.58006 1.88334 1.58006C1.06134 1.58328 0.420095 2.30144 0.427594 3.15823C0.435094 3.99971 1.07334 4.71061 1.89609 4.70738C2.07309 4.70577 2.24408 4.6687 2.40458 4.6026ZM12.9383 7.46153C12.9308 6.60715 12.2783 5.91237 11.484 5.91237C11.3123 5.91318 11.1428 5.94461 10.9695 6.01474L11.8913 6.43144C12.4283 6.67405 12.6803 7.33821 12.4545 7.91451C12.2288 8.49081 11.6115 8.76243 11.0738 8.51982L10.1513 8.10231C10.3778 8.65443 10.89 9.04131 11.4968 9.03889C12.3008 9.03164 12.9458 8.32638 12.9383 7.46153ZM17.2155 3.13082C17.2155 2.14426 16.4693 1.34228 15.5513 1.34228C14.634 1.34228 13.887 2.14426 13.887 3.13082C13.887 4.11658 14.634 4.91936 15.5513 4.91936C16.4693 4.91936 17.2155 4.11658 17.2155 3.13082Z" fill="black"/>
</svg>
