<svg width="48" height="49" viewBox="0 0 48 49" fill="none" xmlns="http://www.w3.org/2000/svg">
<g clip-path="url(#clip0_410_995)">
<path d="M47.7704 24.3046C47.7704 11.1132 37.0767 0.419434 23.8852 0.419434C10.6938 0.419434 0 11.1132 0 24.3046C0 37.4961 10.6938 48.1899 23.8852 48.1899C37.0767 48.1899 47.7704 37.4961 47.7704 24.3046Z" fill="#2787F5"/>
<path fill-rule="evenodd" clip-rule="evenodd" d="M37.8241 17.4264C38.026 16.7948 37.8241 16.3308 36.8633 16.3308H33.6862C32.8784 16.3308 32.5059 16.7317 32.304 17.1737C32.304 17.1737 30.6883 20.8679 28.3995 23.2676C27.659 23.9622 27.3224 24.1832 26.9185 24.1832C26.7165 24.1832 26.4242 23.9622 26.4242 23.3307V17.4264C26.4242 16.6685 26.1898 16.3308 25.5165 16.3308H20.5239C20.0191 16.3308 19.7155 16.6825 19.7155 17.0159C19.7155 17.7342 20.8598 17.8999 20.9778 19.9207V24.3096C20.9778 25.2718 20.7925 25.4463 20.3886 25.4463C19.3116 25.4463 16.6916 21.7355 15.1378 17.4894C14.8332 16.6641 14.5278 16.3308 13.7158 16.3308H10.5387C9.63097 16.3308 9.4494 16.7317 9.4494 17.1737C9.4494 17.9631 10.5265 21.8783 14.4646 27.0565C17.09 30.5928 20.789 32.5097 24.1549 32.5097C26.1744 32.5097 26.4242 32.084 26.4242 31.3506V28.6779C26.4242 27.8264 26.6156 27.6564 27.2551 27.6564C27.7263 27.6564 28.5342 27.8775 30.4191 29.5825C32.5732 31.6032 32.9284 32.5097 34.1401 32.5097H37.3172C38.2249 32.5097 38.6788 32.084 38.417 31.2438C38.1304 30.4064 37.1019 29.1914 35.7372 27.7512C34.9967 26.9302 33.8859 26.0462 33.5493 25.604C33.0781 25.0358 33.2127 24.7831 33.5493 24.278C33.5493 24.278 37.4202 19.1629 37.8241 17.4264Z" fill="white"/>
</g>
<defs>
<clipPath id="clip0_410_995">
<rect width="48" height="48.5217" fill="white"/>
</clipPath>
</defs>
</svg>
