<svg width="197" height="28" viewBox="0 0 197 28" fill="none" xmlns="http://www.w3.org/2000/svg">
<mask id="mask0_2_26" style="mask-type:alpha" maskUnits="userSpaceOnUse" x="0" y="2" width="24" height="24">
<rect y="2.21968" width="24" height="23.5606" fill="#FF0000"/>
</mask>
<g mask="url(#mask0_2_26)">
<path d="M5.67581 12.0479L8.66015 2.24223H13.8827L10.6852 12.0479H5.67581Z" fill="#52EA73"/>
<path d="M1.58667 9.064L9.8011 14.8472L8.19893 19.818L0.0498908 13.8319L1.58667 9.064Z" fill="#52EA73"/>
<path d="M4.10288 22.7334L12.3421 16.8094L16.5031 19.9657L8.09401 25.7608L4.10288 22.7334Z" fill="#52EA73"/>
<path d="M18.0764 24.5155L14.6777 14.9537L18.8666 11.8347L22.0944 21.5238L18.0764 24.5155Z" fill="#52EA73"/>
<path d="M23.9943 11.8916L13.8478 12.0562L12.2311 7.09013L22.4436 7.12825L23.9943 11.8916Z" fill="#52EA73"/>
</g>
<path d="M40.928 9.424C40.816 9.312 40.608 9.16 40.304 8.968C40.016 8.776 39.656 8.592 39.224 8.416C38.808 8.24 38.352 8.088 37.856 7.96C37.36 7.816 36.856 7.744 36.344 7.744C35.448 7.744 34.768 7.912 34.304 8.248C33.856 8.584 33.632 9.056 33.632 9.664C33.632 10.128 33.776 10.496 34.064 10.768C34.352 11.04 34.784 11.272 35.36 11.464C35.936 11.656 36.656 11.864 37.52 12.088C38.64 12.36 39.608 12.696 40.424 13.096C41.256 13.48 41.888 13.992 42.32 14.632C42.768 15.256 42.992 16.088 42.992 17.128C42.992 18.04 42.824 18.824 42.488 19.48C42.152 20.12 41.688 20.64 41.096 21.04C40.504 21.44 39.832 21.736 39.08 21.928C38.328 22.104 37.528 22.192 36.68 22.192C35.832 22.192 34.984 22.104 34.136 21.928C33.288 21.752 32.472 21.504 31.688 21.184C30.904 20.848 30.184 20.448 29.528 19.984L30.992 17.128C31.136 17.272 31.392 17.464 31.76 17.704C32.128 17.928 32.576 18.16 33.104 18.4C33.632 18.624 34.208 18.816 34.832 18.976C35.456 19.136 36.088 19.216 36.728 19.216C37.624 19.216 38.304 19.064 38.768 18.76C39.232 18.456 39.464 18.024 39.464 17.464C39.464 16.952 39.28 16.552 38.912 16.264C38.544 15.976 38.032 15.728 37.376 15.52C36.72 15.296 35.944 15.056 35.048 14.8C33.976 14.496 33.08 14.16 32.36 13.792C31.64 13.408 31.104 12.928 30.752 12.352C30.4 11.776 30.224 11.056 30.224 10.192C30.224 9.024 30.496 8.048 31.04 7.264C31.6 6.464 32.352 5.864 33.296 5.464C34.24 5.048 35.288 4.84 36.44 4.84C37.24 4.84 37.992 4.928 38.696 5.104C39.416 5.28 40.088 5.512 40.712 5.8C41.336 6.088 41.896 6.4 42.392 6.736L40.928 9.424ZM51.0388 22.24C50.0148 22.24 49.0948 22.072 48.2788 21.736C47.4628 21.384 46.7668 20.904 46.1908 20.296C45.6148 19.672 45.1668 18.968 44.8468 18.184C44.5428 17.4 44.3908 16.576 44.3908 15.712C44.3908 14.528 44.6548 13.448 45.1828 12.472C45.7268 11.48 46.4948 10.688 47.4868 10.096C48.4788 9.504 49.6548 9.208 51.0148 9.208C52.3748 9.208 53.5428 9.504 54.5188 10.096C55.4948 10.688 56.2228 11.464 56.7028 12.424L53.5588 13.384C53.2868 12.92 52.9268 12.568 52.4788 12.328C52.0308 12.072 51.5348 11.944 50.9908 11.944C50.3828 11.944 49.8228 12.104 49.3108 12.424C48.8148 12.728 48.4228 13.168 48.1348 13.744C47.8468 14.304 47.7028 14.96 47.7028 15.712C47.7028 16.448 47.8468 17.104 48.1348 17.68C48.4388 18.24 48.8388 18.688 49.3348 19.024C49.8308 19.344 50.3828 19.504 50.9908 19.504C51.3748 19.504 51.7348 19.44 52.0708 19.312C52.4228 19.184 52.7348 19.008 53.0068 18.784C53.2788 18.56 53.4788 18.304 53.6068 18.016L56.7508 18.976C56.4628 19.6 56.0388 20.16 55.4788 20.656C54.9348 21.152 54.2868 21.544 53.5348 21.832C52.7988 22.104 51.9668 22.24 51.0388 22.24ZM66.2176 12.208C65.2416 12.208 64.3696 12.4 63.6016 12.784C62.8336 13.152 62.2816 13.688 61.9456 14.392V22H58.7296V9.424H61.6816V12.112C62.1296 11.248 62.6976 10.568 63.3856 10.072C64.0736 9.576 64.8016 9.304 65.5696 9.256C65.7456 9.256 65.8816 9.256 65.9776 9.256C66.0736 9.256 66.1536 9.264 66.2176 9.28V12.208ZM73.6548 22.24C72.6308 22.24 71.7108 22.072 70.8948 21.736C70.0788 21.384 69.3828 20.904 68.8068 20.296C68.2468 19.688 67.8148 18.992 67.5108 18.208C67.2068 17.424 67.0548 16.6 67.0548 15.736C67.0548 14.856 67.2068 14.024 67.5108 13.24C67.8148 12.456 68.2468 11.76 68.8068 11.152C69.3828 10.544 70.0788 10.072 70.8948 9.736C71.7108 9.384 72.6308 9.208 73.6548 9.208C74.6788 9.208 75.5908 9.384 76.3908 9.736C77.2068 10.072 77.9028 10.544 78.4788 11.152C79.0548 11.76 79.4868 12.456 79.7748 13.24C80.0788 14.024 80.2308 14.856 80.2308 15.736C80.2308 16.6 80.0788 17.424 79.7748 18.208C79.4868 18.992 79.0548 19.688 78.4788 20.296C77.9188 20.904 77.2308 21.384 76.4148 21.736C75.5988 22.072 74.6788 22.24 73.6548 22.24ZM70.3668 15.736C70.3668 16.472 70.5108 17.128 70.7988 17.704C71.0868 18.264 71.4788 18.704 71.9748 19.024C72.4708 19.344 73.0308 19.504 73.6548 19.504C74.2628 19.504 74.8148 19.344 75.3108 19.024C75.8068 18.688 76.1988 18.24 76.4868 17.68C76.7908 17.104 76.9428 16.448 76.9428 15.712C76.9428 14.992 76.7908 14.344 76.4868 13.768C76.1988 13.192 75.8068 12.744 75.3108 12.424C74.8148 12.104 74.2628 11.944 73.6548 11.944C73.0308 11.944 72.4708 12.112 71.9748 12.448C71.4788 12.768 71.0868 13.216 70.7988 13.792C70.5108 14.352 70.3668 15 70.3668 15.736ZM88.2095 22.24C87.1855 22.24 86.2655 22.072 85.4495 21.736C84.6335 21.384 83.9375 20.904 83.3615 20.296C82.8015 19.688 82.3695 18.992 82.0655 18.208C81.7615 17.424 81.6095 16.6 81.6095 15.736C81.6095 14.856 81.7615 14.024 82.0655 13.24C82.3695 12.456 82.8015 11.76 83.3615 11.152C83.9375 10.544 84.6335 10.072 85.4495 9.736C86.2655 9.384 87.1855 9.208 88.2095 9.208C89.2335 9.208 90.1455 9.384 90.9455 9.736C91.7615 10.072 92.4575 10.544 93.0335 11.152C93.6095 11.76 94.0415 12.456 94.3295 13.24C94.6335 14.024 94.7855 14.856 94.7855 15.736C94.7855 16.6 94.6335 17.424 94.3295 18.208C94.0415 18.992 93.6095 19.688 93.0335 20.296C92.4735 20.904 91.7855 21.384 90.9695 21.736C90.1535 22.072 89.2335 22.24 88.2095 22.24ZM84.9215 15.736C84.9215 16.472 85.0655 17.128 85.3535 17.704C85.6415 18.264 86.0335 18.704 86.5295 19.024C87.0255 19.344 87.5855 19.504 88.2095 19.504C88.8175 19.504 89.3695 19.344 89.8655 19.024C90.3615 18.688 90.7535 18.24 91.0415 17.68C91.3455 17.104 91.4975 16.448 91.4975 15.712C91.4975 14.992 91.3455 14.344 91.0415 13.768C90.7535 13.192 90.3615 12.744 89.8655 12.424C89.3695 12.104 88.8175 11.944 88.2095 11.944C87.5855 11.944 87.0255 12.112 86.5295 12.448C86.0335 12.768 85.6415 13.216 85.3535 13.792C85.0655 14.352 84.9215 15 84.9215 15.736ZM101.876 22.072C101.044 22.072 100.276 21.912 99.5722 21.592C98.8842 21.256 98.2842 20.792 97.7722 20.2C97.2762 19.608 96.8922 18.928 96.6202 18.16C96.3482 17.392 96.2122 16.576 96.2122 15.712C96.2122 14.8 96.3562 13.952 96.6442 13.168C96.9322 12.384 97.3322 11.696 97.8442 11.104C98.3722 10.496 98.9882 10.032 99.6922 9.712C100.412 9.376 101.204 9.208 102.068 9.208C103.044 9.208 103.9 9.432 104.636 9.88C105.372 10.312 105.98 10.896 106.46 11.632V9.424H109.268V21.4C109.268 22.648 108.964 23.712 108.356 24.592C107.764 25.488 106.94 26.168 105.884 26.632C104.828 27.112 103.628 27.352 102.284 27.352C100.924 27.352 99.7722 27.12 98.8282 26.656C97.8842 26.208 97.0762 25.568 96.4042 24.736L98.1562 23.032C98.6362 23.624 99.2362 24.088 99.9562 24.424C100.692 24.76 101.468 24.928 102.284 24.928C102.972 24.928 103.596 24.8 104.156 24.544C104.732 24.304 105.188 23.92 105.524 23.392C105.876 22.88 106.052 22.216 106.052 21.4V19.816C105.636 20.536 105.044 21.096 104.276 21.496C103.524 21.88 102.724 22.072 101.876 22.072ZM102.956 19.504C103.308 19.504 103.644 19.448 103.964 19.336C104.284 19.224 104.58 19.072 104.852 18.88C105.124 18.688 105.364 18.464 105.572 18.208C105.78 17.936 105.94 17.664 106.052 17.392V14.392C105.86 13.896 105.588 13.464 105.236 13.096C104.9 12.728 104.516 12.448 104.084 12.256C103.668 12.048 103.228 11.944 102.764 11.944C102.268 11.944 101.82 12.048 101.42 12.256C101.02 12.464 100.676 12.76 100.388 13.144C100.1 13.512 99.8762 13.928 99.7162 14.392C99.5722 14.84 99.5002 15.312 99.5002 15.808C99.5002 16.32 99.5882 16.8 99.7642 17.248C99.9402 17.696 100.18 18.088 100.484 18.424C100.804 18.76 101.172 19.024 101.588 19.216C102.02 19.408 102.476 19.504 102.956 19.504ZM117.999 22.24C116.991 22.24 116.079 22.072 115.263 21.736C114.447 21.384 113.751 20.912 113.175 20.32C112.599 19.712 112.151 19.024 111.831 18.256C111.527 17.472 111.375 16.648 111.375 15.784C111.375 14.584 111.639 13.488 112.167 12.496C112.711 11.504 113.479 10.712 114.471 10.12C115.479 9.512 116.663 9.208 118.023 9.208C119.399 9.208 120.575 9.512 121.551 10.12C122.527 10.712 123.271 11.504 123.783 12.496C124.311 13.472 124.575 14.528 124.575 15.664C124.575 15.856 124.567 16.056 124.551 16.264C124.535 16.456 124.519 16.616 124.503 16.744H114.783C114.847 17.384 115.031 17.944 115.335 18.424C115.655 18.904 116.055 19.272 116.535 19.528C117.031 19.768 117.559 19.888 118.119 19.888C118.759 19.888 119.359 19.736 119.919 19.432C120.495 19.112 120.887 18.696 121.095 18.184L123.855 18.952C123.551 19.592 123.111 20.16 122.535 20.656C121.975 21.152 121.311 21.544 120.543 21.832C119.775 22.104 118.927 22.24 117.999 22.24ZM114.711 14.704H121.287C121.223 14.064 121.039 13.512 120.735 13.048C120.447 12.568 120.063 12.2 119.583 11.944C119.103 11.672 118.567 11.536 117.975 11.536C117.399 11.536 116.871 11.672 116.391 11.944C115.927 12.2 115.543 12.568 115.239 13.048C114.951 13.512 114.775 14.064 114.711 14.704ZM131.58 13.36C131.58 12.32 131.764 11.304 132.132 10.312C132.516 9.304 133.068 8.392 133.788 7.576C134.508 6.744 135.388 6.088 136.428 5.608C137.468 5.112 138.652 4.864 139.98 4.864C141.548 4.864 142.9 5.208 144.036 5.896C145.188 6.584 146.044 7.48 146.604 8.584L144.06 10.336C143.772 9.696 143.396 9.192 142.932 8.824C142.468 8.44 141.972 8.176 141.444 8.032C140.916 7.872 140.396 7.792 139.884 7.792C139.052 7.792 138.324 7.96 137.7 8.296C137.092 8.632 136.58 9.072 136.164 9.616C135.748 10.16 135.436 10.768 135.228 11.44C135.036 12.112 134.94 12.784 134.94 13.456C134.94 14.208 135.06 14.936 135.3 15.64C135.54 16.328 135.876 16.944 136.308 17.488C136.756 18.016 137.284 18.44 137.892 18.76C138.516 19.064 139.196 19.216 139.932 19.216C140.46 19.216 140.996 19.128 141.54 18.952C142.084 18.776 142.588 18.496 143.052 18.112C143.516 17.728 143.876 17.232 144.132 16.624L146.844 18.184C146.508 19.032 145.956 19.752 145.188 20.344C144.436 20.936 143.588 21.384 142.644 21.688C141.7 21.992 140.764 22.144 139.836 22.144C138.62 22.144 137.508 21.896 136.5 21.4C135.492 20.888 134.62 20.216 133.884 19.384C133.164 18.536 132.596 17.592 132.18 16.552C131.78 15.496 131.58 14.432 131.58 13.36ZM160.441 22H157.225V14.944C157.225 13.968 157.033 13.24 156.649 12.76C156.281 12.28 155.769 12.04 155.113 12.04C154.729 12.04 154.321 12.152 153.889 12.376C153.457 12.6 153.065 12.912 152.713 13.312C152.377 13.696 152.129 14.144 151.969 14.656V22H148.753V4.48H151.969V11.752C152.433 10.952 153.065 10.328 153.865 9.88C154.665 9.432 155.537 9.208 156.481 9.208C157.297 9.208 157.961 9.352 158.473 9.64C158.985 9.912 159.385 10.288 159.673 10.768C159.961 11.232 160.161 11.76 160.273 12.352C160.385 12.928 160.441 13.528 160.441 14.152V22ZM163.237 22V9.424H166.453V22H163.237ZM163.237 7.672V4.48H166.453V7.672H163.237ZM181.043 22H177.827V14.944C177.827 13.936 177.651 13.2 177.299 12.736C176.947 12.272 176.459 12.04 175.835 12.04C175.403 12.04 174.963 12.152 174.515 12.376C174.083 12.6 173.691 12.912 173.339 13.312C172.987 13.696 172.731 14.144 172.571 14.656V22H169.355V9.424H172.259V11.752C172.579 11.208 172.987 10.752 173.483 10.384C173.979 10 174.547 9.712 175.187 9.52C175.843 9.312 176.531 9.208 177.251 9.208C178.035 9.208 178.675 9.352 179.171 9.64C179.683 9.912 180.067 10.288 180.323 10.768C180.595 11.232 180.779 11.76 180.875 12.352C180.987 12.944 181.043 13.544 181.043 14.152V22ZM182.975 18.28C182.975 17.464 183.199 16.752 183.647 16.144C184.111 15.52 184.751 15.04 185.567 14.704C186.383 14.368 187.319 14.2 188.375 14.2C188.903 14.2 189.439 14.24 189.983 14.32C190.527 14.4 190.999 14.528 191.399 14.704V14.032C191.399 13.232 191.159 12.616 190.679 12.184C190.215 11.752 189.519 11.536 188.591 11.536C187.903 11.536 187.247 11.656 186.623 11.896C185.999 12.136 185.343 12.488 184.655 12.952L183.623 10.84C184.455 10.296 185.303 9.888 186.167 9.616C187.047 9.344 187.967 9.208 188.927 9.208C190.719 9.208 192.111 9.656 193.103 10.552C194.111 11.448 194.615 12.728 194.615 14.392V18.4C194.615 18.736 194.671 18.976 194.783 19.12C194.911 19.264 195.111 19.352 195.383 19.384V22C195.095 22.048 194.831 22.088 194.591 22.12C194.367 22.152 194.175 22.168 194.015 22.168C193.375 22.168 192.887 22.024 192.551 21.736C192.231 21.448 192.031 21.096 191.951 20.68L191.879 20.032C191.335 20.736 190.655 21.28 189.839 21.664C189.023 22.048 188.191 22.24 187.343 22.24C186.511 22.24 185.759 22.072 185.087 21.736C184.431 21.384 183.911 20.912 183.527 20.32C183.159 19.712 182.975 19.032 182.975 18.28ZM190.799 18.928C190.975 18.736 191.119 18.544 191.231 18.352C191.343 18.16 191.399 17.984 191.399 17.824V16.552C191.015 16.392 190.599 16.272 190.151 16.192C189.703 16.096 189.279 16.048 188.879 16.048C188.047 16.048 187.359 16.232 186.815 16.6C186.287 16.952 186.023 17.424 186.023 18.016C186.023 18.336 186.111 18.64 186.287 18.928C186.463 19.216 186.719 19.448 187.055 19.624C187.391 19.8 187.791 19.888 188.255 19.888C188.735 19.888 189.207 19.8 189.671 19.624C190.135 19.432 190.511 19.2 190.799 18.928Z" fill="white"/>
</svg>
