<svg width="24" height="24" viewBox="0 0 24 24" fill="none" xmlns="http://www.w3.org/2000/svg">
<path d="M19 0H5C2.24 0 0 2.24 0 5V6C0 6.88 0.39 7.67 1 8.22V19C1 21.76 3.24 24 6 24H18C20.76 24 23 21.76 23 19V8.22C23.61 7.67 24 6.88 24 6V5C24 2.24 21.76 0 19 0ZM21 19C21 20.65 19.65 22 18 22H6C4.35 22 3 20.65 3 19V9H21V19ZM22 6C22 6.55 21.55 7 21 7H3C2.45 7 2 6.55 2 6V5C2 3.35 3.35 2 5 2H19C20.65 2 22 3.35 22 5V6ZM8 13.62C8 12.17 9.18 11 10.62 11H11C11 10.45 11.45 10 12 10C12.55 10 13 10.45 13 11H13.27C14.34 11 15.33 11.57 15.87 12.5C16.15 12.98 15.98 13.59 15.51 13.87C15.03 14.15 14.42 13.98 14.14 13.51C13.96 13.2 13.63 13.01 13.27 13.01H10.63C10.29 13.01 10.01 13.29 10.01 13.63C10.01 13.94 10.23 14.2 10.53 14.25L13.81 14.8C15.08 15.01 16 16.1 16 17.39C16 18.84 14.82 20.01 13.38 20.01H13C13 20.56 12.55 21.01 12 21.01C11.45 21.01 11 20.56 11 20.01H10.73C9.66 20.01 8.67 19.44 8.13 18.51C7.85 18.03 8.02 17.42 8.5 17.14C8.98 16.86 9.59 17.03 9.87 17.5C10.05 17.81 10.38 18 10.74 18H13.38C13.72 18 14 17.72 14 17.38C14 17.07 13.78 16.81 13.48 16.76L10.2 16.21C8.93 16 8.01 14.91 8.01 13.62H8Z" fill="black"/>
</svg>
