<svg width="24" height="24" viewBox="0 0 24 24" fill="none" xmlns="http://www.w3.org/2000/svg">
<g id="iconmonstr-steam-1 1" clip-path="url(#clip0_16_74)">
<path id="Vector" d="M22.4109 9.68099C22.4109 10.605 21.6599 11.357 20.7349 11.357C19.8109 11.357 19.0589 10.605 19.0589 9.68099C19.0589 8.75699 19.8109 8.00499 20.7349 8.00499C21.6599 8.00499 22.4109 8.75699 22.4109 9.68099ZM23.9999 9.68099C23.9999 11.482 22.5359 12.963 20.6969 12.944L17.8249 15.085L17.8189 15.087C17.8109 16.456 16.7079 17.57 15.3339 17.583C14.0939 17.593 13.0769 16.711 12.8499 15.562L3.88788 11.793C3.49788 12.049 3.03388 12.202 2.53388 12.207C1.13588 12.219 0.0128849 11.098 -0.000115105 9.72099C-0.0141151 8.32599 1.11288 7.18699 2.51088 7.18699C3.72388 7.18699 4.73888 8.04999 4.96988 9.19999L13.9409 12.972C14.3569 12.7 14.8369 12.554 15.3689 12.565L17.4739 9.61899C17.5069 7.84599 18.9539 6.41699 20.7359 6.41699C22.5379 6.41699 23.9999 7.87799 23.9999 9.68099ZM3.20588 11.507L1.97988 10.992C1.26388 10.691 0.927885 9.86699 1.22888 9.15199C1.52988 8.43599 2.35388 8.09999 3.06988 8.40099L4.28089 8.90999C3.97789 8.23199 3.29688 7.75699 2.51088 7.75699C1.41488 7.76099 0.559885 8.65199 0.569885 9.71499C0.579885 10.759 1.43088 11.641 2.52788 11.637C2.76389 11.635 2.99188 11.589 3.20588 11.507ZM17.2509 15.054C17.2409 13.994 16.3709 13.132 15.3119 13.132C15.0829 13.133 14.8569 13.172 14.6259 13.259L15.8549 13.776C16.5709 14.077 16.9069 14.901 16.6059 15.616C16.3049 16.331 15.4819 16.668 14.7649 16.367L13.5349 15.849C13.8369 16.534 14.5199 17.014 15.3289 17.011C16.4009 17.002 17.2609 16.127 17.2509 15.054ZM22.9539 9.68099C22.9539 8.45699 21.9589 7.46199 20.7349 7.46199C19.5119 7.46199 18.5159 8.45699 18.5159 9.68099C18.5159 10.904 19.5119 11.9 20.7349 11.9C21.9589 11.9 22.9539 10.904 22.9539 9.68099Z" fill="black"/>
</g>
<defs>
<clipPath id="clip0_16_74">
<rect width="24" height="24" fill="white"/>
</clipPath>
</defs>
</svg>
