<svg width="24" height="24" viewBox="0 0 24 24" fill="none" xmlns="http://www.w3.org/2000/svg">
<g clip-path="url(#clip0_306_1370)">
<path d="M5.17172 21.7698C6.42424 16.5738 4.93737 16.396 4.93737 13.8748C4.93737 13.0344 5.6 11.0223 5.69697 10.0445C5.92323 7.79804 5.36566 8.39602 7.00606 6.73137L7.10303 4.42026C7.92727 3.62834 8.33939 2.91723 9.34949 3.16773C9.96364 4.99399 8.8 4.42026 8.68687 6.55359C9.37374 7.46672 9.83434 7.55561 10.3515 8.70308C11.0061 10.1576 10.5374 10.1415 11.7737 11.3617C13.5919 11.5718 14.6909 11.5799 15.9919 10.2708C16.1293 8.87278 15.3212 8.99399 16.1455 7.70915C16.7111 6.82834 17.2687 6.35157 18.3273 6.70713C18.6747 8.08086 17.1152 8.36369 17.6 9.89096C19.6929 10.1011 20.1778 7.21622 21.7778 7.07076C21.7778 10.1495 18.5616 10.5536 18.4889 13.0586C18.4404 14.6263 19.8303 18.9415 21.2364 19.8627C22.4727 17.9637 23.8061 15.895 23.9596 13.6001C25.0343 -2.06055 4.31515 -4.91308 0.379798 8.80005C0.177778 9.50309 0.0565657 10.2142 0 10.9253V12.7435C0.347475 17.2526 3.12727 21.2122 5.17172 21.7698Z" fill="#EF4635"/>
<path d="M11.2323 23.8706C16.8323 24.5333 16.2424 22.804 15.1354 16.4282C14.699 13.9151 14.1899 12.5898 11.2081 12.8242C9.3495 15.0302 10.2869 19.3292 10.3515 21.2121C10.4 22.6989 10.1495 22.7959 11.2323 23.8706ZM17.6727 22.3353C18.6101 22.2222 18.7717 22.0282 19.5313 21.4222C19.6525 20.1373 18.7717 18.0686 17.398 17.6565C16.7515 18.9009 16.9374 21.1151 17.6727 22.3353ZM8.44445 23.402C8.44445 21.8343 8.63839 18.5939 7.83031 17.4787C6.75556 17.7939 7.08687 18.7151 7.07879 20.6787C7.07071 22.1171 6.80404 23.2565 8.44445 23.402Z" fill="#EF4635"/>
</g>
<defs>
<clipPath id="clip0_306_1370">
<rect width="24" height="24" fill="white"/>
</clipPath>
</defs>
</svg>
