<svg width="24" height="24" viewBox="0 0 24 24" fill="none" xmlns="http://www.w3.org/2000/svg">
<path d="M19.0804 15.1098C19.4986 15.2647 19.6587 15.8698 19.6908 16.1323C19.7548 16.6135 19.6098 16.7994 19.4496 16.7994C19.2895 16.7994 19.0653 16.6135 18.8242 16.2417C18.583 15.8698 18.4869 15.4506 18.6169 15.2337C18.6961 15.0934 18.8731 15.0314 19.0804 15.1098ZM16.6426 16.8632C16.9007 16.8632 17.1889 16.9725 17.4451 17.1876C17.9425 17.5922 18.0857 18.057 17.8294 18.3979C17.6863 18.5692 17.4451 18.6767 17.172 18.6767C16.8988 18.6767 16.6105 18.5856 16.4184 18.4143C15.97 18.0406 15.8419 17.4209 16.1301 17.0801C16.1919 17.0074 16.2705 16.9497 16.3595 16.9117C16.4485 16.8737 16.5454 16.8583 16.6426 16.8632ZM11.0304 21.3469C8.84856 21.3465 6.71585 20.7203 4.90189 19.5473C3.08793 18.3744 1.6742 16.7074 0.839425 14.7572C0.00465317 12.8069 -0.213663 10.661 0.212078 8.59072C0.63782 6.52044 1.6885 4.61878 3.23128 3.12619C4.77405 1.63359 6.73964 0.617076 8.87951 0.205181C11.0194 -0.206714 13.2374 0.00450183 15.2532 0.812124C17.269 1.61975 18.9921 2.98751 20.2044 4.74247C21.4168 6.49743 22.0641 8.56078 22.0645 10.6716C22.0632 12.5993 21.5257 14.4912 20.5084 16.1487C20.4764 16.1943 20.3953 16.1797 20.3803 16.1177C19.996 13.4949 18.3438 12.0532 15.938 11.6176C15.7308 11.5866 15.6968 11.4627 15.97 11.4317C16.7066 11.3697 17.7503 11.3843 18.2948 11.4772C18.4138 10.4875 18.3151 9.48459 18.0052 8.53435C17.6953 7.58411 17.1812 6.70802 16.4966 5.96359C15.812 5.21916 14.9724 4.62322 14.0329 4.21489C13.0935 3.80655 12.0754 3.59505 11.0454 3.59427C7.02138 3.59427 3.74901 6.76204 3.74901 10.6552C3.74901 14.5484 7.02138 17.7162 11.0473 17.7162H11.3827C11.2688 17.0863 11.2209 16.447 11.2395 15.8079C11.2583 15.3722 11.3525 15.3103 11.5447 15.6511C12.5563 17.3425 13.9994 18.8644 16.8215 19.4696C19.1312 19.9653 21.4409 20.5395 23.9258 23.5961C24.1519 23.8603 23.8128 24.1392 23.5566 23.9223C21.0227 21.7497 18.7149 21.0352 16.6124 21.0352C14.2556 21.0516 12.6524 21.3451 11.0323 21.3451L11.0304 21.3469Z" fill="#FF8C00"/>
</svg>
