<svg width="25" height="24" viewBox="0 0 25 24" fill="none" xmlns="http://www.w3.org/2000/svg">
<g clip-path="url(#clip0_306_1197)">
<path d="M21.8196 4.85767C22.3817 5.58253 22.8504 6.37974 23.2497 7.22064L12.4159 15.2047L7.8678 12.3475V8.92958L12.3933 11.7627L21.8196 4.85767Z" fill="#21A038"/>
<path d="M3.24884 12.114C3.24884 11.9497 3.24884 11.8095 3.27296 11.6453L0.530217 11.5051C0.530217 11.692 0.506105 11.903 0.506105 12.0898C0.505444 13.6519 0.813745 15.1986 1.41326 16.641C2.01277 18.0834 2.89166 19.393 3.99933 20.4944L5.94487 18.5504C5.08921 17.7113 4.40992 16.7097 3.94693 15.6044C3.48394 14.4991 3.2466 13.3123 3.24884 12.114Z" fill="url(#paint0_linear_306_1197)"/>
<path d="M12.3934 2.98309C12.5576 2.98309 12.6978 2.98309 12.8621 3.00721L13.0037 0.268986C12.8153 0.268986 12.6044 0.244874 12.416 0.244874C10.8526 0.244177 9.30436 0.551974 7.86009 1.15063C6.41581 1.74928 5.10386 2.62703 3.99939 3.73358L5.94493 5.6761C6.78797 4.82267 7.7921 4.14515 8.89906 3.68286C10.006 3.22057 11.1938 2.98271 12.3934 2.98309Z" fill="url(#paint1_linear_306_1197)"/>
<path d="M12.3934 21.2433C12.2291 21.2433 12.089 21.2433 11.9247 21.2192L11.7845 23.9589C11.9714 23.9589 12.1824 23.9815 12.3693 23.9815C13.9328 23.9826 15.4813 23.6752 16.9258 23.0768C18.3703 22.4784 19.6826 21.6008 20.7874 20.4943L18.8418 18.5503C18.0034 19.4099 17.0002 20.0915 15.8922 20.5542C14.7841 21.0169 13.5941 21.2513 12.3934 21.2433Z" fill="url(#paint2_linear_306_1197)"/>
<path d="M17.5518 4.5774L19.8726 2.86695C17.7545 1.15741 15.1152 0.224116 12.3933 0.222168V2.96039C14.2355 2.97197 16.0321 3.53611 17.5518 4.5774Z" fill="url(#paint3_linear_306_1197)"/>
<path d="M24.3047 12.1138C24.3047 11.3889 24.2339 10.6852 24.1178 9.98291L21.5619 11.8802V12.1138C21.5629 13.3912 21.2938 14.6544 20.7723 15.8205C20.2508 16.9866 19.4887 18.0293 18.5359 18.8802L20.3895 20.9147C21.6219 19.8036 22.6073 18.4461 23.2817 16.93C23.9562 15.414 24.3047 13.7731 24.3047 12.1138Z" fill="#21A038"/>
<path d="M12.3933 21.2449C11.115 21.246 9.85084 20.9775 8.68334 20.4568C7.51585 19.9362 6.47129 19.1751 5.61787 18.2234L3.57739 20.074C4.69028 21.3077 6.0504 22.2934 7.56929 22.9669C9.08818 23.6404 10.7318 23.9867 12.3933 23.9831V21.2449Z" fill="url(#paint4_linear_306_1197)"/>
<path d="M6.27341 5.34899L4.42131 3.31152C3.18647 4.42096 2.19951 5.77837 1.52487 7.29513C0.850237 8.81189 0.503099 10.4539 0.506123 12.1139H3.24886C3.25019 10.837 3.52017 9.57466 4.04125 8.40891C4.56233 7.24316 5.32286 6.20009 6.27341 5.34748V5.34899Z" fill="url(#paint5_linear_306_1197)"/>
</g>
<defs>
<linearGradient id="paint0_linear_306_1197" x1="330.671" y1="149.245" x2="184.98" y2="84.2212" gradientUnits="userSpaceOnUse">
<stop offset="0.144" stop-color="#F2E913"/>
<stop offset="0.304" stop-color="#E7E518"/>
<stop offset="0.582" stop-color="#CADB26"/>
<stop offset="0.891" stop-color="#A3CD39"/>
</linearGradient>
<linearGradient id="paint1_linear_306_1197" x1="84.4535" y1="50.6974" x2="878.724" y2="3.95387" gradientUnits="userSpaceOnUse">
<stop offset="0.059" stop-color="#0FA8E0"/>
<stop offset="0.538" stop-color="#0099F9"/>
<stop offset="0.923" stop-color="#0291EB"/>
</linearGradient>
<linearGradient id="paint2_linear_306_1197" x1="-4.7852" y1="67.7963" x2="894.527" y2="36.4134" gradientUnits="userSpaceOnUse">
<stop offset="0.123" stop-color="#A3CD39"/>
<stop offset="0.285" stop-color="#86C339"/>
<stop offset="0.869" stop-color="#21A038"/>
</linearGradient>
<linearGradient id="paint3_linear_306_1197" x1="-45.593" y1="28.1147" x2="722.782" y2="64.714" gradientUnits="userSpaceOnUse">
<stop offset="0.057" stop-color="#0291EB"/>
<stop offset="0.79" stop-color="#0C8ACB"/>
</linearGradient>
<linearGradient id="paint4_linear_306_1197" x1="75.3374" y1="54.7372" x2="911.401" y2="102.968" gradientUnits="userSpaceOnUse">
<stop offset="0.132" stop-color="#F2E913"/>
<stop offset="0.298" stop-color="#EBE716"/>
<stop offset="0.531" stop-color="#D9E01F"/>
<stop offset="0.802" stop-color="#BBD62D"/>
<stop offset="0.983" stop-color="#A3CD39"/>
</linearGradient>
<linearGradient id="paint5_linear_306_1197" x1="215.228" y1="148.646" x2="386.268" y2="79.9467" gradientUnits="userSpaceOnUse">
<stop offset="0.07" stop-color="#A3CD39"/>
<stop offset="0.26" stop-color="#81C55F"/>
<stop offset="0.922" stop-color="#0FA8E0"/>
</linearGradient>
<clipPath id="clip0_306_1197">
<rect width="24" height="24" fill="white" transform="translate(0.5)"/>
</clipPath>
</defs>
</svg>
