<svg width="27" height="24" viewBox="0 0 27 24" fill="none" xmlns="http://www.w3.org/2000/svg">
<g clip-path="url(#clip0_306_1218)">
<path d="M26.6908 11.2265L27.0418 10.1096L25.8805 10.1459C25.7824 10.1459 25.0692 10.1258 24.3773 9.62715C24.4289 9.6322 24.4804 9.6392 24.5331 9.6392C25.2452 9.6392 25.9341 9.213 26.2103 8.6038L26.71 7.5031C26.0838 7.5111 25.5113 7.4327 25.5113 7.4327C25.5062 7.4317 25.055 7.37435 24.5331 6.84465C24.1587 6.46465 23.6955 6.2636 23.1937 6.2636C22.9742 6.2636 22.7779 6.3028 22.609 6.3561C22.6353 6.26665 22.6606 6.17615 22.6748 6.08265C22.8346 5.0523 22.167 4.2662 22.167 4.26719L21.294 3.19259L20.7528 4.4552C20.7507 4.45923 20.6142 4.75474 20.3694 4.89952C20.2955 4.52858 20.1145 4.11137 19.727 3.71234C18.9966 2.96042 18.1075 2.84883 17.6421 2.84883C17.4266 2.84883 17.2729 2.87197 17.2354 2.87798L16.1814 3.08404C16.2421 2.84982 16.3716 2.44272 16.6083 2.07581L17.19 1.17508L15.7262 1.34095L15.2598 0.356855L14.3575 0.819285L13.523 0L12.6904 0.819285L11.785 0.356855L11.3197 1.34095L9.85695 1.17508L10.4396 2.07581C10.6763 2.44272 10.8058 2.84882 10.8655 3.08305L9.8599 2.88605L9.82555 2.87996C9.77495 2.87197 9.62225 2.84883 9.40575 2.84883C8.9404 2.84883 8.05125 2.96141 7.32285 3.71234C6.9344 4.11038 6.75335 4.52858 6.6785 4.89952C6.43575 4.75679 6.30015 4.46525 6.30015 4.46525L5.75795 3.19563L4.87083 4.27724C4.76254 4.41699 4.22746 5.1558 4.3731 6.08465C4.3883 6.17715 4.41256 6.26765 4.43888 6.3571C4.27096 6.3038 4.07468 6.2646 3.8552 6.2646C3.35344 6.2646 2.89015 6.46565 2.51485 6.84565C1.99483 7.3734 1.54569 7.4327 1.54979 7.4327C1.54979 7.4327 1.07533 7.51715 0.340923 7.50405L0.8376 8.6048C1.1138 9.21495 1.80365 9.6402 2.51485 9.6402C2.56846 9.6402 2.62002 9.63315 2.67265 9.62815C1.98274 10.1267 1.26956 10.1469 1.18355 10.1479L0 10.1096L0.358111 11.2255C0.53819 11.8004 1.14005 12.7534 2.29332 12.8559C2.16784 13.3787 1.88966 13.9637 1.27868 14.2161L0.397578 14.5769L0.878055 15.4083C1.14917 15.8566 1.78547 16.3813 2.69182 16.3813C2.8881 16.3803 3.07723 16.3612 3.25936 16.323C3.3059 16.528 3.36454 16.7331 3.43336 16.9362C3.70342 17.7344 3.47078 18.2913 3.46774 18.2973L3.03274 19.203L4.00388 19.4573C4.01604 19.4614 4.30937 19.5408 4.6766 19.5408C4.84353 19.5408 5.0023 19.5237 5.15205 19.4885C5.2653 19.4624 5.3736 19.4272 5.47775 19.385C5.6032 19.6091 5.75595 19.8132 5.934 19.9961C6.55615 20.6304 7.43725 20.9521 8.554 20.9521H8.55805L9.3552 20.9421L7.7083 21.6216L8.95865 22.2218C9.41285 22.4419 9.952 22.7022 10.5003 22.9013L10.3445 23.3255L10.7755 23.5205C10.8139 23.5375 11.6424 23.9065 13.0202 23.9849C13.0202 23.9849 13.353 24 13.5361 24C13.7192 24 14.0479 23.9839 14.0479 23.9839C15.4167 23.9035 16.239 23.5386 16.2775 23.5205L16.7094 23.3245L16.5516 22.8992C17.1161 22.6942 17.6745 22.4237 18.1095 22.2127L19.3365 21.6206L17.6947 20.94L18.4949 20.9501C19.6127 20.9501 20.4948 20.6285 21.1159 19.9931C21.2929 19.8111 21.4457 19.607 21.5722 19.3829C21.6764 19.4251 21.7856 19.4603 21.8989 19.4865C22.0476 19.5217 22.2064 19.5387 22.3733 19.5387C22.7344 19.5387 23.0309 19.4593 23.0389 19.4573L24.0141 19.201L23.5892 18.3124C23.5791 18.2893 23.3465 17.7334 23.6166 16.9342C23.6853 16.7302 23.743 16.5251 23.7895 16.321C23.9727 16.3592 24.1638 16.3793 24.3611 16.3793C25.5153 16.3793 26.0686 15.5721 26.1759 15.3972L26.6513 14.5749L25.7702 14.215C25.1582 13.9627 24.8811 13.3766 24.7566 12.8549C25.8936 12.7584 26.5046 11.8055 26.6908 11.2265ZM10.9423 3.46807L10.9303 3.47104L10.9404 3.45802L10.9423 3.46807Z" fill="white"/>
<path d="M13.524 3.41895C12.5913 3.41994 11.8923 3.72351 11.7395 4.08037L13.524 4.77999L15.3084 4.08037C15.1567 3.72351 14.4577 3.41994 13.524 3.41895Z" fill="white"/>
<path d="M13.542 21.9404H13.54H13.5248H13.5076H13.5066C12.9411 21.9444 12.1632 21.8288 11.7879 21.7202L11.3367 22.9335C11.6341 23.0391 12.6417 23.2401 13.5248 23.2401C14.4059 23.2401 15.4144 23.0381 15.7108 22.9335L15.2606 21.7202C14.8844 21.8298 14.1074 21.9444 13.542 21.9404Z" fill="white"/>
<path d="M16.9564 20.7339C16.6205 20.9229 15.8709 21.2063 15.4349 21.338L15.8011 22.3402C16.4758 22.1572 17.0322 21.9432 17.4925 21.714L16.7328 21.4626L16.9564 20.7339Z" fill="white"/>
<path d="M10.0925 20.7339L10.3171 21.4626L9.5564 21.714C10.0156 21.9432 10.575 22.1572 11.2467 22.3402L11.6129 21.338C11.1789 21.2063 10.4283 20.9219 10.0925 20.7339Z" fill="white"/>
<path d="M13.5237 2.25885C14.2267 2.25885 14.9166 2.42571 15.4467 2.71923C15.4953 2.5574 15.563 2.36138 15.6551 2.15631L15.4548 2.18044L15.2444 2.20253L15.1554 2.01253L14.8873 1.44961L14.3987 1.70294L14.2085 1.79946L14.0568 1.65065L13.5257 1.12793L12.9956 1.65065L12.8439 1.79946L12.6537 1.70294L12.1621 1.44961L11.8971 2.01253L11.806 2.20253L11.5956 2.18044L11.3953 2.15631C11.4874 2.36238 11.5541 2.5574 11.6037 2.71923C12.1348 2.42571 12.8226 2.25885 13.5237 2.25885Z" fill="white"/>
<path d="M24.258 8.76469C24.3491 8.79589 24.4421 8.80999 24.5342 8.80999C24.9317 8.80999 25.3161 8.55459 25.4486 8.26214C25.4486 8.26214 24.7193 8.21789 23.9353 7.42679C23.6855 7.17039 23.4214 7.09399 23.1948 7.09399C22.8428 7.09399 22.5787 7.27894 22.5787 7.27894C23.5256 7.77959 23.7188 8.58374 24.258 8.76469Z" fill="white"/>
<path d="M2.51395 8.80999C2.60598 8.80999 2.69906 8.79589 2.78811 8.76469C3.32927 8.58374 3.5235 7.77959 4.47038 7.27894C4.47038 7.27894 4.20528 7.09399 3.8553 7.09399C3.62769 7.09399 3.36365 7.17039 3.11276 7.42679C2.32984 8.21789 1.60046 8.26214 1.60046 8.26214C1.73096 8.55459 2.11637 8.80999 2.51395 8.80999Z" fill="white"/>
<path d="M24.5151 12.0327C24.5313 12.0337 24.5454 12.0337 24.5626 12.0337C25.555 12.0337 25.8919 10.9772 25.8919 10.9772H25.8726C25.6906 10.9772 24.2146 10.935 23.1717 9.61711C22.4848 8.75061 21.9223 7.98861 20.8106 7.68911L20.7014 7.67001L20.6771 7.55941C20.6467 7.39046 20.7631 7.23266 21.0271 7.06181C22.5607 6.06361 21.5197 4.79095 21.5197 4.79095C21.5197 4.79095 21.0817 5.80931 20.1015 5.80931C20.0782 5.80931 20.0529 5.80831 20.0287 5.80831C19.9174 5.80221 19.8102 5.79816 19.7019 5.77511L19.5208 5.73996C19.5208 5.73996 19.8001 4.98498 19.1263 4.29136C18.6185 3.76765 18.0004 3.6792 17.6433 3.6792C17.4632 3.6792 17.3489 3.70227 17.3489 3.70227C17.6878 4.14262 17.9326 4.87239 17.5412 5.32271C17.2033 5.70971 16.3778 5.72886 16.3778 6.30581C16.3778 6.55011 16.6075 6.83561 17.0202 7.09191C18.2614 7.86896 19.4935 8.89936 20.0054 10.2806C20.6457 12.0036 19.9245 13.1465 18.8947 13.8019C18.8947 13.8019 19.2174 14.0974 19.6858 14.1346C19.7808 14.1437 19.8739 14.1477 19.9609 14.1477C20.9492 14.1477 21.4601 13.6873 21.4601 13.6873C21.4601 13.6873 21.3761 14.3237 20.8612 14.9147C20.3868 15.4605 19.7636 15.7812 18.8137 15.7953C18.8137 15.7953 18.7834 16.2336 19.2042 16.6125C19.4733 16.8518 20.0954 16.9302 20.0954 16.9302C20.0954 16.9302 18.9311 17.1644 18.8026 18.8733C18.7328 19.7992 18.4951 20.1208 18.4951 20.1208H18.5164C21.2183 20.1208 21.1485 17.8178 21.1485 17.8178C21.1485 17.8178 21.3366 18.4993 22.0903 18.6773C22.1813 18.7014 22.2784 18.7105 22.3715 18.7105C22.6143 18.7105 22.8247 18.6542 22.8247 18.6542C22.8247 18.6542 22.4302 17.8269 22.8216 16.6699C23.1464 15.7098 23.0938 14.9982 23.0938 14.9982C23.0938 14.9982 23.4579 15.545 24.3603 15.55H24.3694C25.121 15.55 25.4487 14.9841 25.4487 14.9841C23.6471 14.2412 23.8252 11.8427 23.8252 11.8427C23.8252 11.8427 24.0589 12.0156 24.5151 12.0327ZM23.9728 14.5377C23.2404 14.1789 22.7771 13.2259 22.6649 12.8821C22.5434 14.7719 21.6148 16.0838 20.5294 17.3463C19.9659 18.0008 19.7697 18.6371 19.7697 18.6371C19.7697 18.6371 19.8779 17.9163 20.3655 17.3293C21.3781 16.12 22.3402 14.6151 22.412 12.8751C22.4615 11.6608 22.1469 10.6756 21.6563 9.86441C21.9304 10.7098 21.892 11.7452 20.9603 12.7113C20.9603 12.7113 22.8146 10.5027 20.2219 8.23891C19.184 7.37746 18.049 6.84566 17.4643 6.46871C19.5765 7.15326 20.6073 6.39931 20.6073 6.39931C19.9325 6.98036 19.0596 6.97031 18.5183 6.88686C18.665 6.95826 18.8178 7.03261 18.9827 7.12011C20.7631 8.08111 22.3634 9.66231 22.6365 11.8528V11.8356C23.0513 13.9858 23.9728 14.5377 23.9728 14.5377Z" fill="white"/>
<path d="M6.95253 16.9302C6.95253 16.9302 7.57468 16.8528 7.84378 16.6125C8.26353 16.2336 8.23428 15.7953 8.23428 15.7953C7.28338 15.7822 6.66123 15.4605 6.18378 14.9157C5.67288 14.3246 5.58793 13.6883 5.58793 13.6883C5.58793 13.6883 6.09873 14.1487 7.08608 14.1487C7.17513 14.1487 7.26718 14.1447 7.36223 14.1356C7.83063 14.0985 8.15433 13.8029 8.15433 13.8029C7.12448 13.1475 6.40228 12.0036 7.04158 10.2806C7.55448 8.90036 8.78553 7.86896 10.0268 7.09191C10.4395 6.83561 10.6691 6.55116 10.6691 6.30581C10.6691 5.72886 9.84468 5.70971 9.50678 5.32271C9.11538 4.87239 9.36118 4.14156 9.69903 3.70227C9.69903 3.70227 9.58673 3.6792 9.40563 3.6792C9.04958 3.6792 8.43148 3.76765 7.92368 4.29136C7.24793 4.98498 7.52818 5.73996 7.52818 5.73996L7.34708 5.77511C7.23888 5.79816 7.13058 5.80221 7.02033 5.80831C6.99508 5.80831 6.97278 5.80931 6.94853 5.80931C5.96628 5.80931 5.53028 4.79194 5.53028 4.79194C5.53028 4.79194 4.48933 6.06461 6.02188 7.06276C6.28593 7.23366 6.40128 7.39156 6.37093 7.56036L6.34658 7.67096L6.23533 7.69006C5.12563 7.98961 4.56219 8.75161 3.87532 9.61806C2.83437 10.934 1.36047 10.9772 1.17643 10.9772H1.15613C1.15613 10.9772 1.49302 12.0337 2.48538 12.0337C2.50158 12.0337 2.51572 12.0337 2.53291 12.0327C2.98913 12.0166 3.22381 11.8427 3.22381 11.8427C3.22381 11.8427 3.39986 14.2402 1.60025 14.9841C1.60025 14.9841 1.92802 15.55 2.67961 15.55H2.68873C3.59204 15.545 3.95524 14.9982 3.95524 14.9982C3.95524 14.9982 3.90262 15.7098 4.22635 16.6699C4.61778 17.8269 4.2253 18.6542 4.2253 18.6542C4.2253 18.6542 4.43572 18.7105 4.67748 18.7105C4.77155 18.7105 4.86768 18.7014 4.95772 18.6773C5.71028 18.4993 5.89948 17.8178 5.89948 17.8178C5.89948 17.8178 5.83068 20.1208 8.53268 20.1208H8.55183C8.55183 20.1208 8.31518 19.7992 8.24638 18.8733C8.11693 17.1644 6.95253 16.9302 6.95253 16.9302ZM6.51863 17.3463C5.43318 16.0838 4.50553 14.7719 4.3831 12.8821C4.27085 13.2249 3.80954 14.1789 3.07719 14.5377C3.07719 14.5377 3.99768 13.9858 4.41146 11.8356V11.8528C4.68561 9.66336 6.28493 8.08111 8.06628 7.12011C8.22918 7.03166 8.38393 6.95726 8.52963 6.88686C7.98843 6.97031 7.11543 6.98036 6.44068 6.39931C6.44068 6.39931 7.47148 7.15326 9.58268 6.46871C8.99803 6.84566 7.86398 7.37746 6.82608 8.23891C4.23237 10.5027 6.08763 12.7113 6.08763 12.7113C5.15498 11.7442 5.11758 10.7098 5.39168 9.86441C4.90007 10.6766 4.58645 11.6608 4.63702 12.8751C4.70782 14.6151 5.66983 16.12 6.68043 17.3293C7.16908 17.9153 7.27933 18.6371 7.27933 18.6371C7.27933 18.6371 7.08098 18.0008 6.51863 17.3463Z" fill="white"/>
<path d="M11.5263 8.51018C11.5708 8.55748 11.6143 8.60868 11.6558 8.65998C11.6659 8.67203 11.675 8.68313 11.6851 8.69723C11.7236 8.74843 11.763 8.80273 11.8005 8.85798C11.8085 8.86908 11.8167 8.88213 11.8257 8.89523C11.8713 8.96358 11.9138 9.03388 11.9562 9.10628C12.3457 9.77478 12.9699 10.1739 13.5232 10.1749C14.0775 10.1739 14.6997 9.77478 15.0912 9.10628C15.1347 9.03193 15.1782 8.95953 15.2236 8.89218C15.2307 8.88213 15.2379 8.87313 15.2439 8.86303C15.2823 8.80578 15.3228 8.74943 15.3653 8.69518C15.3744 8.68313 15.3825 8.67308 15.3906 8.66303C15.4341 8.60973 15.4786 8.55748 15.5241 8.50918C15.5322 8.50113 15.5382 8.49413 15.5453 8.48813C15.7436 8.28603 15.9803 8.13223 16.2898 8.04678L16.1523 7.96738H16.1442L15.5959 7.65073L15.0325 7.33008L13.5272 8.14428L13.5232 8.14128L13.5201 8.14428L12.0139 7.33008L11.4515 7.64973L10.9022 7.96638H10.8961L10.7565 8.04578C11.067 8.13123 11.3027 8.28303 11.502 8.48508C11.5111 8.49313 11.5172 8.50218 11.5263 8.51018ZM12.9142 8.44488H13.5515H14.1878V8.87913C14.0381 8.69723 13.7468 8.73438 13.7468 8.73438V9.36063C13.7468 9.36063 13.7579 9.66823 13.8661 9.80198H13.5515H13.2359C13.3461 9.66928 13.3563 9.36063 13.3563 9.36063V8.73438C13.3563 8.73438 13.0659 8.69723 12.9142 8.87913V8.44488Z" fill="white"/>
<path d="M13.3937 7.6025V5.0603L11.765 4.51147L12.1949 6.9753L13.3937 7.6025ZM13.0437 5.68455V6.09265L12.9648 6.0565C12.9607 6.05345 12.8454 6.02735 12.6431 5.8685C12.3093 5.6112 12.3032 5.37395 12.3032 5.37395L13.0437 5.68455Z" fill="white"/>
<path d="M14.8544 6.9753L15.2823 4.51147L13.6547 5.0603V7.6025L14.8544 6.9753ZM14.0047 5.68455L14.7451 5.3749C14.7451 5.3749 14.7391 5.6122 14.4043 5.86955C14.203 6.02835 14.0866 6.05445 14.0826 6.0575L14.0037 6.09365V5.68455H14.0047Z" fill="white"/>
<path d="M11.0903 13.4964C11.2491 13.5537 11.4413 13.5658 11.5394 13.5658C11.5435 13.5537 11.5485 13.5386 11.5536 13.5205C11.5627 13.4914 11.5708 13.4633 11.5769 13.4311C11.6042 13.2903 11.6143 13.1305 11.6163 13.0279C11.5495 12.9868 11.4555 12.9134 11.4029 12.8038C11.3422 12.6772 11.2562 12.6189 11.1297 12.6189C10.9659 12.6189 10.7899 12.7164 10.715 12.7626C10.6554 13.1134 10.9153 13.4321 11.0903 13.4964Z" fill="white"/>
<path d="M14.6924 12.147C14.39 12.4737 13.7982 13.0427 13.7688 13.0719L13.7334 13.108L11.863 13.0789C11.862 13.2628 11.8316 13.4197 11.8023 13.5342C11.7973 13.5533 11.7922 13.5734 11.7871 13.5936L14.0126 13.9906C14.2443 13.8298 14.8816 13.3674 15.1284 13.1864C14.9483 12.9251 14.9311 12.6154 14.9716 12.3973C14.8543 12.3219 14.7642 12.2375 14.6924 12.147Z" fill="white"/>
<path d="M14.9464 9.91174C14.5154 10.3369 14.1017 10.4937 13.7325 10.5299C13.6657 10.537 13.598 10.541 13.5292 10.541H13.5241H13.52C13.4513 10.541 13.3825 10.537 13.3157 10.5299C13.251 10.5239 13.1832 10.5138 13.1155 10.4988C13.0911 10.5942 13.0608 10.7943 13.1478 10.9833C13.2257 11.1552 13.3845 11.2828 13.6162 11.3673L13.694 11.3974L13.6951 11.4809C13.6951 11.506 13.7133 12.0468 14.3071 12.1966C14.4042 12.0971 14.4922 12.0076 14.557 11.9333C14.4355 11.6498 14.4992 11.3602 14.6753 11.2185C14.6672 11.2486 14.5903 11.9584 15.1629 12.2218L15.257 12.266L15.2286 12.3655C15.2195 12.3956 15.0283 13.0822 15.7213 13.3375L15.8437 13.3838L15.789 13.5024C15.7769 13.5285 15.5048 14.1518 16.1452 14.5056H17.534V13.4099C17.0404 13.3496 16.831 12.9556 16.7774 12.6761C16.5478 12.6369 16.3697 12.5384 16.2483 12.3776C15.9569 11.9966 16.2078 11.6477 16.2109 11.6286C16.2099 11.6317 16.2109 12.0036 16.4415 12.2328C16.5558 12.3434 16.6914 12.4288 16.8967 12.4479L16.9979 12.457L17.007 12.5595C17.009 12.5816 17.0647 13.0842 17.535 13.1636L17.534 10.926C17.534 10.5792 17.6362 10.2304 17.7586 9.90869H14.9464V9.91174Z" fill="white"/>
<path d="M11.2087 10.937L11.1713 12.3623L11.3341 12.3865L11.7327 11.0193L11.5304 10.5991L11.2087 10.937Z" fill="white"/>
<path d="M15.6027 17.4741C15.6149 17.4741 15.629 17.4761 15.6421 17.4791C15.89 17.5494 15.9527 18.4381 16.3876 18.5175C16.4301 18.5265 16.4696 18.5286 16.504 18.5286C16.6294 18.5286 16.7043 18.4753 16.7852 18.3808C16.7852 18.3808 16.5668 18.039 16.4029 17.8088C16.1853 17.5073 16.0164 17.1423 15.6118 17.1423C15.6026 17.1423 15.5905 17.1423 15.5805 17.1433C15.4469 17.1504 15.365 17.2147 15.365 17.2147C15.2011 17.1122 15.0483 17.077 14.9097 17.077C14.6558 17.077 14.4586 17.1926 14.3604 17.1926H14.3564L13.452 17.1041C13.3104 17.0911 13.1991 16.9494 13.1587 16.894C13.1486 16.879 13.1435 16.8699 13.1435 16.8699C13.1435 16.8458 13.1435 16.8207 13.1415 16.7986C13.1111 16.0637 12.5386 15.7491 12.3352 15.7441C12.3352 15.7441 12.3595 15.6043 12.3039 15.551L12.1046 15.7913L11.4501 15.4646L11.9164 16.0064L11.5209 16.4477C11.4713 16.498 11.4774 16.5663 11.4976 16.5945L11.6686 16.7443L11.8851 16.6136C11.8962 16.6055 11.9154 16.6036 11.9397 16.6036C11.9994 16.6036 12.0894 16.6186 12.1703 16.6186C12.2583 16.6186 12.3352 16.5995 12.3443 16.5171C12.317 16.7895 12.0631 17.2629 12.23 17.6349L12.3535 17.9154L11.5543 17.8008L11.18 18.429C11.0647 18.6381 11.0465 18.8643 11.1578 18.987L11.2973 19.1608C11.2973 19.1608 11.4936 18.9537 11.5381 18.818L11.4743 18.7487C11.4207 18.6904 11.4238 18.6381 11.4562 18.5747L11.6909 18.1878L12.6346 18.4089L12.6842 18.3245C12.7479 18.2189 12.84 18.1868 12.9412 18.1868C12.9826 18.1868 13.0251 18.1918 13.0696 18.1988C13.2447 18.233 13.533 18.2793 13.8213 18.2793C14.1379 18.2793 14.4515 18.223 14.6183 18.037C14.9603 18.5406 15.6532 18.6211 15.5986 18.8764L15.4165 19.7389C15.5369 19.7339 15.6532 19.7258 15.7635 19.7107L15.9365 18.813C15.9557 18.7155 15.9739 18.5838 15.9739 18.5838C15.9071 18.5164 15.7453 18.3737 15.6543 18.2009C15.5318 17.9676 15.5987 17.846 15.4844 17.5424C15.4884 17.5444 15.5227 17.4741 15.6027 17.4741ZM12.0722 16.2135C12.0257 16.2125 11.9923 16.1733 11.9943 16.127C11.9984 16.0828 12.0358 16.0476 12.0813 16.0517C12.1278 16.0537 12.1612 16.0939 12.1592 16.1381C12.1551 16.1824 12.1167 16.2166 12.0722 16.2135Z" fill="white"/>
<path d="M10.7839 18.2902C10.7839 18.2902 11.0965 18.1625 11.1248 18.071L11.0833 17.9675C11.054 17.9001 11.058 17.8267 11.1147 17.7865L11.4525 17.5543L12.017 17.6619C12.017 17.6619 11.9148 17.5352 11.925 17.3654L11.3868 17.2517L10.879 17.5593C10.6615 17.7212 10.6453 17.9856 10.7171 18.1424L10.7839 18.2902Z" fill="white"/>
<path d="M14.7733 19.7518C14.8745 19.7477 14.9857 19.7457 15.1082 19.7457C15.1082 19.7457 15.3985 18.9023 15.4146 18.8752C15.2518 18.8038 14.9139 18.6259 14.7834 18.5444C14.8694 18.6722 15.0788 18.8189 15.0374 18.9315L14.7733 19.7518Z" fill="white"/>
<path d="M17.5368 14.75H9.51184V17.7496C9.51184 18.976 10.4051 19.744 11.7232 19.744C12.8248 19.744 13.1151 19.7862 13.5248 20.1904C13.8071 19.9108 14.0408 19.8063 14.5202 19.7671L14.5313 19.7209L14.7842 18.9439C14.7701 18.9268 14.3564 18.4593 14.3564 18.4593C14.1925 18.5136 14.0549 18.5226 13.8233 18.5226C13.5855 18.5226 13.3175 18.4955 13.0271 18.4413C12.9978 18.4342 12.9705 18.4322 12.9431 18.4322C12.9077 18.4322 12.9047 18.4352 12.8956 18.4523L12.845 18.5347L12.753 18.6855L12.58 18.6463L11.8102 18.4664L11.7049 18.6392L11.7211 18.6574L11.8152 18.7599L11.7738 18.8936C11.7171 19.0684 11.533 19.2726 11.4774 19.3288L11.2851 19.5339L11.1102 19.3138L10.9787 19.1499C10.84 18.9961 10.8077 18.7599 10.8856 18.5126C10.8835 18.5146 10.8805 18.5156 10.8775 18.5156L10.66 18.6051L10.5618 18.394L10.4931 18.2442C10.3748 17.9808 10.4182 17.5959 10.7369 17.3636L11.357 17.0158L11.9468 17.1314C11.9609 17.0751 11.9821 16.8741 11.9993 16.8228C11.9882 16.8218 11.9771 16.8188 11.9659 16.8188L11.6261 16.9444L11.2983 16.7193C11.2983 16.7193 11.1698 16.5966 11.2861 16.474L11.6038 15.9965L10.7996 14.9933L12.0357 15.4979L12.1177 15.3963L12.2846 15.1984L12.4738 15.3772C12.5274 15.4285 12.5577 15.4919 12.5729 15.5552C12.9138 15.6869 13.5238 16.0759 13.5774 16.7082L13.3862 16.7846V16.7896C13.4297 16.8409 13.4661 16.862 13.4772 16.864L14.3594 16.9504C14.3816 16.9465 14.41 16.9364 14.4413 16.9274C14.5506 16.8901 14.7155 16.8368 14.9107 16.8368C15.0695 16.8368 15.2232 16.8731 15.3709 16.9414C15.4256 16.9213 15.4924 16.9062 15.5693 16.9012L15.6117 16.9002C16.0841 16.9002 16.3188 17.251 16.507 17.5305C16.5383 17.5787 16.5697 17.625 16.6021 17.6702C16.7669 17.9014 16.9824 18.2402 16.9915 18.2542L17.0886 18.405L16.9692 18.5427C16.8772 18.6483 16.7396 18.7719 16.5029 18.7719C16.4544 18.7719 16.4008 18.7669 16.3431 18.7559C16.2926 18.7468 16.247 18.7317 16.2025 18.7136C16.1954 18.7599 16.1863 18.8152 16.1772 18.8624L16.0224 19.6646C16.948 19.4384 17.5358 18.7438 17.5358 17.7506L17.5368 14.75Z" fill="#FFDD2D"/>
<path d="M9.51205 14.5086H15.7526C15.441 14.189 15.4451 13.7839 15.525 13.5205C15.4339 13.4772 15.359 13.4249 15.2923 13.3687C15.0485 13.5476 14.304 14.0864 14.1098 14.2211L14.0683 14.2493L11.6192 13.809H11.5697C11.511 13.809 11.425 13.807 11.3309 13.7959C11.3046 13.9055 11.2096 13.9809 11.1003 13.9809C11.0881 13.9809 11.074 13.9799 11.0608 13.9768C10.9971 13.9658 10.9415 13.9336 10.9041 13.8804C10.8656 13.8281 10.8505 13.7657 10.8616 13.7014L10.8707 13.6491C10.6178 13.4722 10.3851 13.0771 10.4883 12.661L10.4984 12.6168L10.5338 12.5916C10.5389 12.5876 10.5813 12.5595 10.6441 12.5233L10.466 12.4961C10.3993 12.4841 10.3548 12.4227 10.3649 12.3574C10.376 12.2911 10.4387 12.2438 10.5045 12.2569L10.9283 12.3232L10.9668 10.8395L11.598 10.176L11.9915 10.9994L11.5757 12.4268L11.9501 12.4851C12.0158 12.4951 12.0613 12.5565 12.0512 12.6238C12.0411 12.6831 11.9905 12.7243 11.9308 12.7243C11.9247 12.7243 11.9177 12.7243 11.9116 12.7233L11.6071 12.6741C11.6112 12.6831 11.6172 12.6881 11.6213 12.6982C11.6536 12.7645 11.7255 12.8128 11.7679 12.8329L13.6354 12.862C13.7142 12.7856 13.9105 12.5946 14.1118 12.3926C13.6526 12.2197 13.4856 11.8256 13.4573 11.5643C13.2004 11.4557 13.0233 11.2929 12.9252 11.0807C12.8058 10.8184 12.8483 10.556 12.8797 10.4284C12.6308 10.3379 12.3689 10.1731 12.1018 9.90967H9.28955C9.40995 10.2314 9.51205 10.5802 9.51205 10.927V14.5086Z" fill="#FFDD2D"/>
<path d="M12.0825 16.0516C12.037 16.0475 11.9986 16.0827 11.9955 16.1269C11.9925 16.1731 12.0269 16.2123 12.0734 16.2134C12.1179 16.2174 12.1574 16.1832 12.1614 16.138C12.1614 16.0937 12.1291 16.0525 12.0825 16.0516Z" fill="black"/>
<path d="M17.526 21.4908L17.0637 21.3149L17.1912 20.8405L17.3318 20.3228C17.3318 20.3228 16.5124 20.764 15.3582 21.0958C15.0304 21.1892 14.7826 21.2315 14.7826 21.2315V21.5833C14.7826 21.5833 14.1655 21.6899 13.5414 21.6899H13.5342H13.5252H13.513H13.5059C12.8818 21.6899 12.2647 21.5833 12.2647 21.5833V21.2315C12.2647 21.2315 12.0158 21.1892 11.6891 21.0958C10.5349 20.764 9.71652 20.3228 9.71652 20.3228L9.85507 20.8405L9.98557 21.3149L9.52227 21.4908L9.00842 21.6818C9.59817 21.9643 10.4145 22.3764 11.1621 22.5795L10.9861 23.058C10.9861 23.058 11.9339 23.4873 13.513 23.4912V23.4923H13.5181H13.5252H13.5313H13.5353V23.4912C15.1164 23.4873 16.0632 23.058 16.0632 23.058L15.8862 22.5795C16.6337 22.3764 17.4522 21.9643 18.0389 21.6818L17.526 21.4908ZM9.55667 21.714L10.3174 21.4627L10.0928 20.7339C10.4276 20.9229 11.1793 21.2064 11.6142 21.3381L11.2471 22.3403C10.5753 22.1563 10.0159 21.9422 9.55667 21.714ZM13.5252 23.2399C12.642 23.2399 11.6335 23.0379 11.3371 22.9333L11.7882 21.72C12.1625 21.8286 12.9415 21.9442 13.5069 21.9402H13.508H13.5252H13.5403H13.5424C14.1079 21.9442 14.8847 21.8286 15.2611 21.72L15.7112 22.9333C15.4148 23.0389 14.4073 23.2399 13.5252 23.2399ZM15.8012 22.3403L15.4351 21.3381C15.871 21.2064 16.6206 20.9229 16.9565 20.7339L16.7329 21.4627L17.4926 21.714C17.0323 21.9422 16.4759 22.1563 15.8012 22.3403Z" fill="black"/>
<path d="M13.5241 2.55242C14.4649 2.55242 15.2175 2.86201 15.6333 3.19275C15.6333 3.19275 15.7567 2.45392 16.1785 1.80149L15.4208 1.88697L15.0243 1.04957L14.2626 1.43961L13.5241 0.713867L12.7877 1.43961L12.025 1.04957L11.6294 1.88697L10.8717 1.80149C11.2935 2.45392 11.417 3.19275 11.417 3.19275C11.8337 2.86201 12.5843 2.55242 13.5241 2.55242ZM11.595 2.18049L11.8054 2.20257L11.8965 2.01264L12.1615 1.44966L12.6531 1.702L12.8433 1.79852L12.9951 1.64971L13.5251 1.12698L14.0562 1.64971L14.208 1.79852L14.3981 1.702L14.8868 1.44966L15.1548 2.01264L15.2438 2.20257L15.4542 2.18049L15.6545 2.15636C15.5625 2.36242 15.4947 2.55745 15.4461 2.71928C14.916 2.42576 14.2261 2.2589 13.5231 2.2589C12.8231 2.2589 12.1342 2.42576 11.6021 2.71928C11.5526 2.55745 11.4858 2.36143 11.3937 2.15636L11.595 2.18049Z" fill="black"/>
<path d="M24.5612 12.3563C25.7782 12.3563 26.1848 11.1259 26.202 11.0736L26.3375 10.6404L25.8813 10.6544H25.8793C25.7185 10.6544 24.3761 10.6193 23.4242 9.41704L23.3341 9.30544C22.712 8.51934 22.1223 7.77244 21.0682 7.43164C21.0985 7.40454 21.142 7.37034 21.2017 7.33214C21.7611 6.96624 22.0869 6.52194 22.1688 6.00629C22.2882 5.23024 21.7905 4.61197 21.7682 4.58685L21.4293 4.17069L21.2179 4.66426C21.2038 4.6954 20.8476 5.48554 20.0991 5.48554H20.0434C19.9919 5.48249 19.9433 5.48049 19.8948 5.47649C19.9211 5.12364 19.8563 4.57779 19.3586 4.06618C18.7607 3.44991 18.0263 3.35742 17.642 3.35742C17.4366 3.35742 17.3001 3.38261 17.2858 3.38459L16.774 3.48515L17.0896 3.89826C17.3375 4.2169 17.562 4.80501 17.296 5.11259C17.211 5.21014 17.036 5.28954 16.8681 5.36894C16.5231 5.52679 16.0527 5.74589 16.0527 6.30484C16.0527 6.66669 16.335 7.04464 16.8468 7.36634C18.3622 8.31329 19.2969 9.30139 19.7005 10.392C20.3247 12.0698 19.5103 13.0268 18.7193 13.5304L18.3642 13.7576L18.6748 14.0411C18.7162 14.0773 19.0966 14.41 19.658 14.4583C19.7643 14.4653 19.8664 14.4714 19.9615 14.4714C20.3216 14.4714 20.6282 14.415 20.877 14.3397C20.8082 14.4593 20.7242 14.5809 20.618 14.7035C20.1659 15.2243 19.6095 15.4615 18.8093 15.4736L18.5119 15.4786L18.4886 15.7751C18.4856 15.8345 18.4634 16.3843 18.9873 16.8517C19.0673 16.9241 19.1644 16.9834 19.2655 17.0327C18.9105 17.3503 18.5493 17.9032 18.4796 18.8511C18.4209 19.6423 18.2307 19.9348 18.2287 19.9378L17.8999 20.4364L18.4937 20.4444C19.475 20.4444 20.2266 20.175 20.7475 19.6423C21.055 19.3266 21.2311 18.9708 21.3353 18.6551C21.5062 18.7999 21.7268 18.9266 22.014 18.9939C22.1233 19.019 22.2427 19.0331 22.3711 19.0331C22.6483 19.0331 22.88 18.9748 22.9063 18.9687L23.2856 18.8683L23.1177 18.5164C23.1055 18.4883 22.7889 17.7825 23.1298 16.7753C23.2765 16.3401 23.3513 15.95 23.3877 15.6464C23.6265 15.7701 23.9462 15.8726 24.3599 15.8737C25.2986 15.8737 25.7124 15.177 25.7316 15.1478L25.9167 14.8282L25.5738 14.6875C24.455 14.226 24.2072 12.9866 24.1576 12.3151C24.2587 12.3342 24.3741 12.3523 24.5045 12.3563H24.5612ZM25.4484 14.984C25.4484 14.984 25.1206 15.5499 24.369 15.5499H24.3599C23.4576 15.5449 23.0934 14.998 23.0934 14.998C23.0934 14.998 23.146 15.7098 22.8203 16.6698C22.4288 17.8268 22.8233 18.6541 22.8233 18.6541C22.8233 18.6541 22.6129 18.7104 22.3701 18.7104C22.2771 18.7104 22.1799 18.7013 22.0889 18.6772C21.3353 18.4993 21.1471 17.8178 21.1471 17.8178C21.1471 17.8178 21.2169 20.1207 18.5149 20.1207H18.4937C18.4937 20.1207 18.7314 19.7991 18.8022 18.8733C18.9307 17.1644 20.0951 16.9301 20.0951 16.9301C20.0951 16.9301 19.4739 16.8527 19.2048 16.6125C18.784 16.2335 18.8133 15.7952 18.8133 15.7952C19.7643 15.7822 20.3864 15.4605 20.8608 14.9146C21.3747 14.3235 21.4597 13.6872 21.4597 13.6872C21.4597 13.6872 20.9488 14.1476 19.9605 14.1476C19.8735 14.1476 19.7805 14.1436 19.6853 14.1346C19.218 14.0974 18.8943 13.8018 18.8943 13.8018C19.923 13.1464 20.6454 12.0025 20.005 10.2795C19.4922 8.89934 18.26 7.86794 17.0198 7.09094C16.6071 6.83454 16.3774 6.55009 16.3774 6.30484C16.3774 5.72784 17.2029 5.70969 17.5418 5.32174C17.9322 4.87131 17.6874 4.14055 17.3486 3.70126C17.3486 3.70126 17.4629 3.67812 17.643 3.67812C18 3.67812 18.6181 3.76756 19.1259 4.29029C19.8007 4.9839 19.5204 5.73884 19.5204 5.73884L19.7015 5.77404C19.8098 5.79719 19.917 5.80119 20.0283 5.80624C20.0526 5.80624 20.0768 5.80724 20.1011 5.80724C21.0813 5.80724 21.5194 4.78888 21.5194 4.78888C21.5194 4.78888 22.5613 6.06254 21.0277 7.05974C20.7637 7.23059 20.6473 7.38849 20.6777 7.55734L20.702 7.66794L20.8112 7.68704C21.923 7.98654 22.4854 8.74854 23.1723 9.61504C24.2152 10.9329 25.6912 10.9751 25.8732 10.9751H25.8925C25.8925 10.9751 25.5556 12.0316 24.5632 12.0316C24.547 12.0316 24.5329 12.0316 24.5157 12.0306C24.0595 12.0146 23.8258 11.8406 23.8258 11.8406C23.8258 11.8406 23.6468 14.2401 25.4484 14.984Z" fill="black"/>
<path d="M22.4239 7.56446C22.8781 7.80466 23.1421 8.12636 23.3738 8.41191C23.6014 8.69036 23.8179 8.95866 24.1557 9.07026C24.2761 9.11151 24.4035 9.13061 24.533 9.13061C25.0408 9.13061 25.5507 8.82196 25.7439 8.39476L25.9381 7.96651L25.4678 7.93841C25.4455 7.93736 24.8406 7.88306 24.1669 7.19851C23.8897 6.91811 23.5548 6.77026 23.1937 6.77026C22.7527 6.77026 22.4259 6.98941 22.3895 7.01156L21.9565 7.31416L22.4239 7.56446ZM23.1947 7.09401C23.4213 7.09401 23.6853 7.17036 23.9352 7.42671C24.7191 8.21786 25.4485 8.26206 25.4485 8.26206C25.316 8.55361 24.9316 8.80991 24.534 8.80991C24.442 8.80991 24.3499 8.79586 24.2579 8.76471C23.7187 8.58376 23.5255 7.77956 22.5776 7.27896C22.5776 7.27896 22.8427 7.09401 23.1947 7.09401Z" fill="black"/>
<path d="M22.6362 11.8357V11.8518C22.3631 9.66244 20.7628 8.08119 18.9824 7.11914C18.8175 7.03169 18.6658 6.95734 18.5181 6.88594C19.0603 6.96934 19.9333 6.97939 20.607 6.39844C20.607 6.39844 19.5762 7.15234 17.464 6.46779C18.0487 6.84474 19.1847 7.37654 20.2216 8.23799C22.8143 10.5017 20.959 12.7103 20.959 12.7103C21.8907 11.7442 21.9291 10.7089 21.655 9.86349C22.1456 10.6747 22.4592 11.6598 22.4106 12.8741C22.3389 14.6142 21.3768 16.119 20.3642 17.3283C19.8776 17.9154 19.7684 18.6362 19.7684 18.6362C19.7684 18.6362 19.9646 17.9998 20.5281 17.3454C21.6135 16.0828 22.5411 14.771 22.6625 12.8812C22.7748 13.224 23.2371 14.1779 23.9705 14.5367C23.9725 14.5378 23.051 13.9859 22.6362 11.8357Z" fill="black"/>
<path d="M8.81902 19.9368C8.81802 19.9338 8.62987 19.6413 8.56922 18.8502C8.49842 17.9022 8.13822 17.3494 7.78217 17.0317C7.88537 16.9835 7.98042 16.9242 8.06037 16.8508C8.58337 16.3833 8.56107 15.8334 8.55802 15.7741L8.53782 15.4776L8.23837 15.4725C7.44027 15.4595 6.88282 15.2223 6.43067 14.7026C6.32547 14.5799 6.24052 14.4583 6.17172 14.3387C6.42052 14.4141 6.72502 14.4703 7.08617 14.4703C7.18332 14.4703 7.28347 14.4643 7.38967 14.4573C7.95107 14.4091 8.33147 14.0773 8.37392 14.0401L8.68447 13.7566L8.32942 13.5295C7.53532 13.0248 6.72402 12.0679 7.34717 10.3911C7.75077 9.30041 8.68447 8.31231 10.2019 7.36536C10.7138 7.04366 10.9939 6.66571 10.9939 6.30386C10.9939 5.74491 10.5246 5.52476 10.1796 5.36796C10.0117 5.28856 9.83672 5.20916 9.75177 5.11161C9.48467 4.80502 9.71022 4.21593 9.95707 3.89728L10.2747 3.4841L9.76082 3.38362C9.74567 3.38157 9.61112 3.35645 9.40477 3.35645C9.02032 3.35645 8.28797 3.44893 7.68907 4.06513C7.19037 4.57781 7.12467 5.12366 7.14992 5.47551C7.10137 5.47951 7.05282 5.48151 7.00222 5.48456H6.94762C6.19702 5.48456 5.84197 4.69442 5.82782 4.66329L5.61632 4.16972L5.27442 4.58587C5.25522 4.61099 4.75552 5.23021 4.8769 6.00531C4.95781 6.52096 5.28352 6.96526 5.84292 7.33116C5.90362 7.36936 5.94612 7.40356 5.97647 7.43066C4.92344 7.77146 4.33467 8.51936 3.71252 9.30546L3.62248 9.41706C2.67164 10.6193 1.32619 10.6545 1.16535 10.6545L0.707153 10.6404L0.846708 11.0737C0.862903 11.126 1.26855 12.3564 2.48647 12.3564L2.54517 12.3543C2.67362 12.3503 2.78898 12.3332 2.89218 12.3131C2.84154 12.9836 2.5937 14.2231 1.47388 14.6855L1.13197 14.8262L1.31714 15.1459C1.33532 15.1751 1.75008 15.8716 2.69081 15.8716C3.10154 15.8707 3.42118 15.7681 3.66096 15.6445C3.69738 15.9481 3.77222 16.3381 3.91891 16.7734C4.25984 17.7806 3.94218 18.4863 3.93002 18.5144L3.7621 18.8662L4.14249 18.9668C4.16775 18.9728 4.40144 19.0311 4.67758 19.0311C4.80708 19.0311 4.92648 19.017 5.03372 18.9919C5.32202 18.9246 5.54452 18.7979 5.71342 18.6532C5.81662 18.9688 5.99367 19.3246 6.30022 19.6403C6.82212 20.1731 7.57272 20.4425 8.55402 20.4425L9.14882 20.4344L8.81902 19.9368ZM8.53172 20.1208C5.82977 20.1208 5.89862 17.8178 5.89862 17.8178C5.89862 17.8178 5.71047 18.4993 4.95682 18.6772C4.86678 18.7014 4.77066 18.7104 4.67659 18.7104C4.43383 18.7104 4.2244 18.6542 4.2244 18.6542C4.2244 18.6542 4.61689 17.8268 4.22539 16.6698C3.90173 15.7098 3.95435 14.9981 3.95435 14.9981C3.95435 14.9981 3.59115 15.5449 2.68784 15.55H2.67871C1.92712 15.55 1.59936 14.984 1.59936 14.984C3.39996 14.2411 3.22292 11.8426 3.22292 11.8426C3.22292 11.8426 2.98929 12.0156 2.53202 12.0326C2.51582 12.0337 2.50068 12.0337 2.48449 12.0337C1.49107 12.0337 1.15524 10.9772 1.15524 10.9772H1.17547C1.35859 10.9772 2.83248 10.935 3.87541 9.61706C4.56228 8.75061 5.12572 7.98961 6.23542 7.68901L6.34667 7.66991L6.37102 7.55936C6.40137 7.39046 6.28602 7.23266 6.02202 7.06176C4.48844 6.06351 5.53037 4.79094 5.53037 4.79094C5.53037 4.79094 5.96637 5.80821 6.94862 5.80821C6.97287 5.80821 6.99517 5.80721 7.02042 5.80721C7.13067 5.80121 7.23997 5.79716 7.34717 5.77406L7.52827 5.73886C7.52827 5.73886 7.24802 4.98392 7.92377 4.29037C8.43162 3.76659 9.04967 3.67813 9.40572 3.67813C9.58682 3.67813 9.69912 3.70127 9.69912 3.70127C9.36127 4.14156 9.11647 4.87133 9.50687 5.32171C9.84477 5.70871 10.6692 5.72781 10.6692 6.30481C10.6692 6.54911 10.4396 6.83456 10.0269 7.09091C8.78562 7.86796 7.55357 8.89936 7.04167 10.2795C6.40237 12.0025 7.12362 13.1455 8.15442 13.8018C8.15442 13.8018 7.83072 14.0974 7.36237 14.1346C7.26727 14.1436 7.17522 14.1477 7.08617 14.1477C6.09887 14.1477 5.58802 13.6873 5.58802 13.6873C5.58802 13.6873 5.67297 14.3236 6.18387 14.9147C6.66132 15.4605 7.28347 15.7822 8.23437 15.7953C8.23437 15.7953 8.26472 16.2335 7.84387 16.6125C7.57382 16.8518 6.95262 16.9302 6.95262 16.9302C6.95262 16.9302 8.11802 17.1644 8.24547 18.8733C8.31527 19.7991 8.55097 20.1208 8.55097 20.1208H8.53172Z" fill="black"/>
<path d="M2.51405 9.13152C2.64455 9.13152 2.77201 9.11242 2.89233 9.07122C3.23226 8.95962 3.44771 8.69122 3.67532 8.41277C3.90802 8.12732 4.17001 7.80567 4.62418 7.56542L5.09157 7.31612L4.65756 7.01352C4.62114 6.99037 4.29542 6.77222 3.8554 6.77222C3.49326 6.77222 3.15742 6.91902 2.88122 7.20047C2.20751 7.88407 1.6036 7.93932 1.58132 7.94032L1.11096 7.96747L1.3042 8.39672C1.49836 8.82192 2.0072 9.13152 2.51405 9.13152ZM3.11287 7.42762C3.36375 7.17132 3.62779 7.09492 3.8554 7.09492C4.20538 7.09492 4.47041 7.27987 4.47041 7.27987C3.5236 7.78152 3.32937 8.58467 2.78814 8.76562C2.69916 8.79682 2.60608 8.81092 2.51405 8.81092C2.11647 8.81092 1.73205 8.55552 1.60056 8.26297C1.60056 8.26202 2.32888 8.21777 3.11287 7.42762Z" fill="black"/>
<path d="M4.63731 12.8751C4.58674 11.6608 4.90036 10.6757 5.39195 9.86446C5.1178 10.7099 5.15525 11.7453 6.08795 12.7113C6.08795 12.7113 4.23266 10.5028 6.82635 8.23896C7.8643 7.37751 8.9993 6.84571 9.583 6.46876C7.4718 7.15331 6.44095 6.39941 6.44095 6.39941C7.11465 6.98046 7.9877 6.97036 8.52995 6.88591C8.38325 6.95731 8.22945 7.03171 8.06655 7.11916C6.2842 8.08116 4.68485 9.66241 4.41069 11.8518V11.8347C3.99699 13.9849 3.07642 14.5368 3.07642 14.5368C3.80884 14.1779 4.27015 13.225 4.3824 12.8811C4.50483 14.771 5.4324 16.0829 6.51785 17.3454C7.0813 17.9998 7.2796 18.6361 7.2796 18.6361C7.2796 18.6361 7.16935 17.9154 6.68075 17.3283C5.67015 16.1211 4.70812 14.6152 4.63731 12.8751Z" fill="black"/>
<path d="M12.9141 8.44507V8.87932C13.0648 8.69737 13.3562 8.73452 13.3562 8.73452V9.36077C13.3562 9.36077 13.346 9.66837 13.2358 9.80212H13.5514H13.866C13.7578 9.66947 13.7466 9.36077 13.7466 9.36077V8.73452C13.7466 8.73452 14.0379 8.69737 14.1877 8.87932V8.44507H13.5514H12.9141Z" fill="black"/>
<path d="M12.643 5.86955C12.8443 6.02835 12.9606 6.05455 12.9646 6.0575L13.0436 6.09375V5.6846L12.3031 5.375C12.3031 5.376 12.3102 5.6122 12.643 5.86955Z" fill="black"/>
<path d="M14.4042 5.86955C14.739 5.6122 14.7451 5.375 14.7451 5.375L14.0046 5.6846V6.09375L14.0825 6.0575C14.0876 6.05455 14.2029 6.02835 14.4042 5.86955Z" fill="black"/>
<path d="M15.7381 4.20407C15.7381 3.58384 14.6871 3.02588 13.5268 3.02588H13.5258H13.5228H13.5197C12.3594 3.02588 11.3084 3.58384 11.3084 4.20407L11.3317 4.35685L11.7949 6.9996L11.3297 7.268L10.1258 7.96665H10.1299C10.1299 7.96665 9.85883 8.10435 9.73333 8.18975C9.27513 8.50645 9.17803 8.96785 9.44403 9.15885C9.50983 8.7829 9.80923 8.3888 10.3696 8.3888C10.7733 8.3888 11.0808 8.59595 11.3297 8.9065C11.3934 8.98495 11.4541 9.06835 11.5107 9.15885C11.5805 9.27245 11.6503 9.37195 11.7201 9.46845H8.61963C8.84723 9.9238 9.06368 10.4063 9.06368 10.93V17.7495C9.06368 19.4001 10.3413 20.1883 11.7231 20.1883C12.7914 20.1883 12.9351 20.14 13.5248 20.723C14.1115 20.139 14.2552 20.1883 15.3244 20.1883C16.7072 20.1883 17.9829 19.4001 17.9829 17.7495V10.93C17.9829 10.4063 18.1994 9.9238 18.428 9.46845H15.3264C15.3952 9.373 15.465 9.27245 15.5348 9.15885C15.5925 9.06835 15.6521 8.98495 15.7149 8.9065C15.9657 8.5949 16.2722 8.3888 16.6759 8.3888C17.2363 8.3888 17.5347 8.7819 17.6015 9.15885C17.8676 8.96785 17.7714 8.50645 17.3101 8.18975C17.1867 8.10435 16.9156 7.96665 16.9156 7.96665H16.9197L15.7159 7.268L15.2526 6.9996L15.7159 4.35685L15.7381 4.20407ZM11.7646 4.51167L13.3933 5.0605V7.6027L12.1946 6.9745L11.7646 4.51167ZM12.1015 9.91175C12.3686 10.1761 12.6306 10.34 12.8794 10.4304C12.847 10.5581 12.8046 10.8215 12.9249 11.0839C13.023 11.2949 13.2011 11.4578 13.457 11.5664C13.4853 11.8277 13.6512 12.2208 14.1115 12.3947C13.9102 12.5968 13.7139 12.7867 13.634 12.8641L11.7676 12.8349C11.7252 12.8139 11.6533 12.7666 11.621 12.6993C11.6169 12.6902 11.6109 12.6852 11.6079 12.6752L11.9123 12.7244C11.9194 12.7254 11.9254 12.7254 11.9315 12.7254C11.9902 12.7254 12.0418 12.6852 12.0519 12.6249C12.062 12.5576 12.0165 12.4962 11.9508 12.4862L11.5765 12.4278L11.9922 11.0014L11.5987 10.1781L10.9675 10.8416L10.929 12.3253L10.5052 12.2589C10.4394 12.2459 10.3767 12.2942 10.3656 12.3595C10.3555 12.4248 10.4 12.4862 10.4667 12.4982L10.6448 12.5254C10.5811 12.5615 10.5396 12.5897 10.5345 12.5937L10.4981 12.6188L10.488 12.6631C10.3848 13.0792 10.6185 13.4743 10.8704 13.6512L10.8613 13.7035C10.8512 13.7678 10.8653 13.8301 10.9038 13.8824C10.9402 13.9357 10.9968 13.9679 11.0595 13.979C11.0727 13.9809 11.0868 13.9819 11.099 13.9819C11.2082 13.9819 11.3034 13.9066 11.3307 13.797C11.4247 13.8081 11.5107 13.81 11.5694 13.81H11.619L14.068 14.2493L14.1095 14.2222C14.3047 14.0865 15.0482 13.5477 15.292 13.3698C15.3588 13.4271 15.4336 13.4793 15.5247 13.5225C15.4458 13.7859 15.4407 14.191 15.7533 14.5107H9.51183V10.9311C9.51183 10.5843 9.40968 10.2354 9.28928 9.91375H12.1015V9.91175ZM15.1281 13.1868C14.8803 13.3677 14.243 13.8301 14.0124 13.991L11.7869 13.5939C11.792 13.5738 11.797 13.5547 11.8021 13.5346C11.8314 13.42 11.8607 13.2632 11.8628 13.0792L13.7332 13.1094L13.7686 13.0732C13.7969 13.045 14.3897 12.4761 14.6922 12.1484C14.764 12.2379 14.854 12.3233 14.9713 12.3987C14.9309 12.6158 14.9481 12.9254 15.1281 13.1868ZM11.4025 12.8038C11.4551 12.9134 11.5501 12.9867 11.6159 13.028C11.6139 13.1305 11.6038 13.2904 11.5765 13.431C11.5704 13.4623 11.5623 13.4914 11.5532 13.5206C11.5482 13.5386 11.5431 13.5537 11.539 13.5658C11.4409 13.5658 11.2477 13.5537 11.0899 13.4964C10.9149 13.4321 10.6539 13.1134 10.7146 12.7626C10.7905 12.7163 10.9655 12.6188 11.1294 12.6188C11.2558 12.6178 11.3418 12.6771 11.4025 12.8038ZM11.1708 12.3625L11.2082 10.9381L11.5299 10.5993L11.7323 11.0195L11.3337 12.3867L11.1708 12.3625ZM15.1079 19.7469C14.9865 19.7469 14.8742 19.749 14.7731 19.753L15.0381 18.9337C15.0796 18.8202 14.8702 18.6744 14.7842 18.5467C14.9147 18.6281 15.2526 18.8061 15.4155 18.8774C15.3983 18.9036 15.1079 19.7469 15.1079 19.7469ZM15.9394 18.8161L15.7665 19.7128C15.6562 19.7278 15.5389 19.7359 15.4185 19.7409L15.6006 18.8784C15.6552 18.6221 14.9623 18.5427 14.6204 18.0391C14.4534 18.226 14.1388 18.2813 13.8232 18.2813C13.5349 18.2813 13.2466 18.2351 13.0716 18.2009C13.0271 18.1939 12.9846 18.1888 12.9431 18.1888C12.842 18.1888 12.7499 18.22 12.6862 18.3265L12.6356 18.411L11.6918 18.1899L11.4571 18.5759C11.4237 18.6382 11.4217 18.6915 11.4753 18.7498L11.539 18.8191C11.4955 18.9558 11.2993 19.1619 11.2993 19.1619L11.1587 18.988C11.0474 18.8644 11.0656 18.6392 11.182 18.4301L11.5562 17.8018L12.3554 17.9165L12.231 17.635C12.0641 17.263 12.318 16.7896 12.3453 16.5171C12.3362 16.5996 12.2603 16.6177 12.1713 16.6177C12.0904 16.6177 12.0003 16.6026 11.9406 16.6026C11.9174 16.6026 11.8971 16.6046 11.886 16.6127L11.6695 16.7433L11.4986 16.5936C11.4783 16.5644 11.4713 16.497 11.5218 16.4468L11.9174 16.0065L11.4501 15.4647L12.1045 15.7914L12.3038 15.5511C12.3585 15.6044 12.3352 15.7441 12.3352 15.7441C12.5395 15.7492 13.112 16.0638 13.1424 16.7976C13.1444 16.8197 13.1444 16.8448 13.1444 16.869C13.1444 16.869 13.1495 16.878 13.1596 16.8931C13.2001 16.9484 13.3113 17.0901 13.4529 17.1032L14.3573 17.1916H14.3613C14.4605 17.1916 14.6578 17.0761 14.9106 17.0761C15.0482 17.0761 15.202 17.1113 15.3659 17.2138C15.3659 17.2138 15.4478 17.1495 15.5813 17.1424C15.5914 17.1414 15.6026 17.1414 15.6127 17.1414C16.0184 17.1414 16.1863 17.5053 16.4038 17.8078C16.5677 18.038 16.7862 18.3798 16.7862 18.3798C16.7052 18.4753 16.6303 18.5276 16.5049 18.5276C16.4706 18.5276 16.4311 18.5246 16.3886 18.5165C15.9536 18.4371 15.8909 17.5485 15.6431 17.4782C15.6299 17.4741 15.6158 17.4731 15.6036 17.4731C15.5237 17.4731 15.4883 17.5435 15.4883 17.5435C15.6015 17.8461 15.5358 17.9687 15.6572 18.2019C15.7482 18.3748 15.9101 18.5176 15.9768 18.5849C15.9768 18.5869 15.9587 18.7176 15.9394 18.8161ZM11.0828 17.9677L11.1243 18.0712C11.097 18.1617 10.7834 18.2904 10.7834 18.2904L10.7156 18.1436C10.6438 17.9868 10.6589 17.7224 10.8775 17.5606L11.3853 17.253L11.9235 17.3666C11.9133 17.5365 12.0155 17.6631 12.0155 17.6631L11.451 17.5556L11.1132 17.7877C11.0565 17.827 11.0525 17.9003 11.0828 17.9677ZM16.0244 19.6635L16.1792 18.8614C16.1873 18.8141 16.1974 18.7588 16.2045 18.7126C16.248 18.7307 16.2945 18.7457 16.3451 18.7548C16.4027 18.7658 16.4563 18.7709 16.5049 18.7709C16.7417 18.7709 16.8792 18.6472 16.9713 18.5417L17.0906 18.4039L16.9935 18.2532C16.9844 18.2381 16.77 17.9003 16.6041 17.6691C16.5717 17.6239 16.5403 17.5786 16.509 17.5294C16.3208 17.25 16.0851 16.8991 15.6127 16.8991L15.5702 16.9001C15.4923 16.9052 15.4256 16.9203 15.372 16.9404C15.2232 16.871 15.0705 16.8358 14.9116 16.8358C14.7164 16.8358 14.5515 16.8891 14.4423 16.9263C14.4109 16.9353 14.3826 16.9454 14.3604 16.9494L13.4772 16.863C13.4661 16.8609 13.4297 16.8398 13.3862 16.7875V16.7836L13.5774 16.7071C13.5237 16.0749 12.9128 15.6858 12.5719 15.5541C12.5567 15.4908 12.5264 15.4275 12.4728 15.3762L12.2826 15.1973L12.1156 15.3963L12.0337 15.4978L10.7976 14.9932L11.6018 15.9965L11.2841 16.4739C11.1678 16.5965 11.2963 16.7192 11.2963 16.7192L11.624 16.9433L11.9639 16.8177C11.976 16.8177 11.9862 16.8207 11.9973 16.8217C11.9811 16.873 11.9599 17.074 11.9457 17.1304L11.3559 17.0147L10.7358 17.3625C10.4172 17.5948 10.3737 17.9798 10.4921 18.2431L10.5608 18.3929L10.6589 18.604L10.8754 18.5145C10.8785 18.5136 10.8815 18.5126 10.8835 18.5105C10.8056 18.7578 10.837 18.993 10.9766 19.1479L11.1081 19.3127L11.2831 19.5328L11.4753 19.3278C11.532 19.2715 11.7151 19.0674 11.7717 18.8925L11.8132 18.7588L11.7191 18.6563L11.7039 18.6382L11.8092 18.4653L12.5789 18.6452L12.7519 18.6844L12.844 18.5337L12.8946 18.4512C12.9037 18.4342 12.9067 18.4311 12.9421 18.4311C12.9694 18.4311 12.9967 18.4342 13.0261 18.4402C13.3164 18.4945 13.5844 18.5216 13.8222 18.5216C14.0528 18.5216 14.1904 18.5126 14.3553 18.4582C14.3553 18.4582 14.769 18.9247 14.7832 18.9428L14.5303 19.7188L14.5191 19.7661C14.0397 19.8043 13.806 19.9088 13.5238 20.1893C13.1141 19.7852 12.8237 19.7429 11.7222 19.7429C10.404 19.7429 9.51083 18.9749 9.51083 17.7485V14.7499H17.5347L17.5368 17.7485C17.5377 18.7437 16.95 19.4374 16.0244 19.6635ZM17.7593 9.91175C17.6369 10.2334 17.5347 10.5822 17.5347 10.929L17.5358 13.1667C17.0653 13.0883 17.0097 12.5847 17.0077 12.5626L16.9986 12.46L16.8974 12.451C16.6931 12.4319 16.5575 12.3454 16.4432 12.2348C16.2126 12.0057 16.2115 11.6337 16.2126 11.6307C16.2096 11.6498 15.9587 11.9986 16.25 12.3796C16.3724 12.5404 16.5494 12.6389 16.7791 12.6781C16.8327 12.9576 17.0421 13.3517 17.5358 13.4119V14.5077H16.1478C15.5075 14.1538 15.7786 13.5306 15.7917 13.5044L15.8464 13.3858L15.724 13.3396C15.031 13.0842 15.2212 12.3967 15.2313 12.3676L15.2596 12.267L15.1656 12.2228C14.593 11.9594 14.6709 11.2487 14.678 11.2196C14.502 11.3613 14.4382 11.6508 14.5596 11.9343C14.4939 12.0087 14.4059 12.0992 14.3098 12.1977C13.717 12.0479 13.6988 11.506 13.6988 11.4809L13.6977 11.3975L13.6199 11.3673C13.3882 11.2819 13.2294 11.1542 13.1515 10.9823C13.0635 10.7923 13.0948 10.5933 13.1192 10.4978C13.1869 10.5129 13.2547 10.5239 13.3194 10.5289C13.3862 10.536 13.455 10.54 13.5238 10.54H13.5278H13.5329C13.6017 10.54 13.6695 10.536 13.7362 10.5289C14.1054 10.4928 14.5192 10.335 14.9501 9.9108H17.7593V9.91175ZM15.5965 7.65L16.1448 7.96665H16.1529L16.2905 8.04605C15.9809 8.13155 15.7442 8.2853 15.546 8.48735C15.5389 8.4934 15.5318 8.5014 15.5247 8.5085C15.4792 8.55675 15.4336 8.60895 15.3912 8.66225C15.3831 8.6723 15.375 8.68335 15.3659 8.69445C15.3234 8.7487 15.284 8.804 15.2455 8.8623C15.2394 8.87235 15.2323 8.8824 15.2253 8.89145C15.1797 8.9588 15.1363 9.0312 15.0928 9.1056C14.7023 9.77405 14.0791 10.1731 13.5248 10.1741C12.9715 10.1731 12.3483 9.77405 11.9578 9.1056C11.9153 9.0332 11.8729 8.96285 11.8273 8.8945C11.8182 8.8814 11.8101 8.8683 11.8021 8.85725C11.7636 8.802 11.7252 8.74775 11.6857 8.69645C11.6756 8.68235 11.6665 8.6713 11.6564 8.6593C11.6139 8.60795 11.5704 8.55675 11.5269 8.50945C11.5178 8.5024 11.5117 8.4934 11.5026 8.48535C11.3034 8.2833 11.0676 8.13045 10.7571 8.04605L10.8967 7.96665H10.9027L11.451 7.65L12.0145 7.3293L13.5197 8.14355L13.5228 8.1405L13.5268 8.14355L15.032 7.3293L15.5965 7.65ZM14.854 6.9755L13.6543 7.6037V5.0605L15.2819 4.51167L14.854 6.9755ZM13.5238 4.78107L11.7393 4.08038C11.8911 3.72352 12.5911 3.41995 13.5238 3.41896C14.4575 3.41995 15.1575 3.72352 15.3082 4.08038L13.5238 4.78107Z" fill="black"/>
</g>
<defs>
<clipPath id="clip0_306_1218">
<rect width="27" height="24" fill="white"/>
</clipPath>
</defs>
</svg>
