<svg width="25" height="24" viewBox="0 0 25 24" fill="none" xmlns="http://www.w3.org/2000/svg">
<g clip-path="url(#clip0_306_1211)">
<path d="M12.5 24C19.1274 24 24.5 18.6274 24.5 12C24.5 5.37258 19.1274 0 12.5 0C5.87258 0 0.5 5.37258 0.5 12C0.5 18.6274 5.87258 24 12.5 24Z" fill="#26A17B"/>
<path fill-rule="evenodd" clip-rule="evenodd" d="M13.9415 13.0373V13.0358C13.859 13.0418 13.4337 13.0673 12.485 13.0673C11.7275 13.0673 11.1942 13.0448 11.0067 13.0358V13.038C8.09073 12.9098 5.91423 12.402 5.91423 11.7945C5.91423 11.1878 8.09073 10.68 11.0067 10.5495V12.5325C11.1972 12.546 11.7432 12.5783 12.4977 12.5783C13.403 12.5783 13.8567 12.5408 13.9415 12.5333V10.551C16.8515 10.6808 19.0227 11.1885 19.0227 11.7945C19.0227 12.402 16.8515 12.9083 13.9415 13.0373ZM13.9415 10.3448V8.57026H18.002V5.86426H6.94623V8.57026H11.0067V10.344C7.70673 10.4955 5.22498 11.1495 5.22498 11.9325C5.22498 12.7155 7.70673 13.3688 11.0067 13.521V19.2075H13.9415V13.5195C17.2362 13.368 19.712 12.7148 19.712 11.9325C19.712 11.1503 17.2362 10.497 13.9415 10.3448Z" fill="white"/>
</g>
<defs>
<clipPath id="clip0_306_1211">
<rect width="24" height="24" fill="white" transform="translate(0.5)"/>
</clipPath>
</defs>
</svg>
