<svg width="24" height="24" viewBox="0 0 24 24" fill="none" xmlns="http://www.w3.org/2000/svg">
<path d="M15.4547 3.6001C10.7172 3.6001 6.91083 7.43253 6.91083 12.1163C6.91083 16.8388 10.7548 20.6326 15.4537 20.6326C20.1525 20.6326 24 16.8001 24 12.1163C24 7.43253 20.1535 3.6001 15.4547 3.6001ZM15.4547 15.2906C13.7073 15.2906 12.2709 13.8582 12.2709 12.1163C12.2709 10.3745 13.7073 8.94213 15.4547 8.94213C17.2021 8.94213 18.6389 10.3745 18.6389 12.1163C18.5998 13.8582 17.2021 15.2906 15.4547 15.2906ZM6.91083 6.07445V18.4618H3.88361L0 6.07445H6.91083Z" fill="#8B3FFD"/>
</svg>
