<svg width="48" height="48" viewBox="0 0 48 48" fill="none" xmlns="http://www.w3.org/2000/svg">
<g clip-path="url(#clip0_410_992)">
<path d="M47.7714 23.9186C47.7714 10.8688 37.0774 0.289795 23.8857 0.289795C10.694 0.289795 0 10.8688 0 23.9186C0 36.9685 10.694 47.5475 23.8857 47.5475C37.0774 47.5475 47.7714 36.9685 47.7714 23.9186Z" fill="#34AADF"/>
<path d="M13.2902 23.0815C13.2902 23.0815 23.0091 19.0321 26.3798 17.6062C27.6719 17.0358 32.0539 15.2107 32.0539 15.2107C32.0539 15.2107 34.0763 14.4122 33.9078 16.3514C33.8516 17.1499 33.4022 19.9446 32.9528 22.9674C32.2786 27.2451 31.5483 31.9219 31.5483 31.9219C31.5483 31.9219 31.4359 33.2338 30.4809 33.4619C29.5258 33.69 27.9528 32.6634 27.6719 32.4352C27.4472 32.2642 23.4585 29.6976 21.9979 28.4428C21.6046 28.1006 21.1552 27.4162 22.054 26.6177C24.0765 24.7355 26.4921 22.3971 27.9528 20.9142C28.627 20.2298 29.3011 18.6328 26.4921 20.572C22.5035 23.3667 18.571 25.9903 18.571 25.9903C18.571 25.9903 17.6721 26.5606 15.9868 26.0473C14.3013 25.534 12.3351 24.8496 12.3351 24.8496C12.3351 24.8496 10.9869 23.9941 13.2902 23.0815Z" fill="white"/>
</g>
<defs>
<clipPath id="clip0_410_992">
<rect width="48" height="48" fill="white"/>
</clipPath>
</defs>
</svg>
