<svg width="48" height="48" viewBox="0 0 48 48" fill="none" xmlns="http://www.w3.org/2000/svg">
<g clip-path="url(#clip0_410_998)">
<path d="M47.7714 23.8857C47.7714 10.694 37.0774 0 23.8857 0C10.694 0 0 10.694 0 23.8857C0 37.0774 10.694 47.7714 23.8857 47.7714C37.0774 47.7714 47.7714 37.0774 47.7714 23.8857Z" fill="#FF0000"/>
<path d="M37.1724 17.3151C36.8605 16.1425 35.9379 15.2175 34.764 14.9004C32.6414 14.3315 24.125 14.3315 24.125 14.3315C24.125 14.3315 15.6131 14.3315 13.4861 14.9004C12.3166 15.2131 11.3939 16.1382 11.0777 17.3151C10.5102 19.4431 10.5102 23.8858 10.5102 23.8858C10.5102 23.8858 10.5102 28.3286 11.0777 30.4565C11.3896 31.6291 12.3122 32.5541 13.4861 32.8712C15.6131 33.4401 24.125 33.4401 24.125 33.4401C24.125 33.4401 32.6414 33.4401 34.764 32.8712C35.9335 32.5584 36.8562 31.6335 37.1724 30.4565C37.7399 28.3286 37.7399 23.8858 37.7399 23.8858C37.7399 23.8858 37.7399 19.4431 37.1724 17.3151Z" fill="white"/>
<path d="M21.4047 27.9812L28.4785 23.8858L21.4047 19.7905V27.9812Z" fill="#FF0000"/>
</g>
<defs>
<clipPath id="clip0_410_998">
<rect width="48" height="48" fill="white"/>
</clipPath>
</defs>
</svg>
