<?xml version="1.0" standalone="no"?>
<!DOCTYPE svg PUBLIC "-//W3C//DTD SVG 20010904//EN"
 "http://www.w3.org/TR/2001/REC-SVG-20010904/DTD/svg10.dtd">
<svg version="1.0" xmlns="http://www.w3.org/2000/svg"
 width="250.000000pt" height="250.000000pt" viewBox="0 0 250.000000 250.000000"
 preserveAspectRatio="xMidYMid meet">
<metadata>
Created by potrace 1.14, written by Peter Selinger 2001-2017
</metadata>
<g transform="translate(0.000000,250.000000) scale(0.100000,-0.100000)"
fill="#000000" stroke="none">
<path d="M870 2386 c-18 -61 -41 -136 -51 -166 -9 -30 -63 -210 -119 -400 -57
-190 -104 -347 -106 -349 -2 -2 -55 34 -118 80 -193 140 -308 221 -311 217 -4
-4 -134 -411 -147 -461 -6 -22 -7 -42 -2 -46 5 -5 191 -145 414 -311 223 -166
409 -306 413 -310 4 -4 -87 -76 -202 -161 l-211 -153 33 -28 c17 -15 110 -88
206 -162 l173 -134 102 71 c161 113 666 467 719 505 26 19 50 32 52 30 5 -5
129 -356 146 -413 19 -65 15 -66 215 85 104 79 197 150 207 159 18 18 8 52
-238 796 -35 105 -65 199 -67 210 -4 22 -10 22 310 25 111 1 204 5 206 9 2 3
-12 51 -30 106 -18 55 -53 166 -79 248 l-47 147 -247 0 c-669 2 -809 4 -806
14 2 6 38 117 79 247 42 129 76 240 76 245 0 7 -95 10 -269 11 l-269 0 -32
-111z m464 -591 c26 -82 61 -192 79 -244 l32 -95 180 3 c99 2 210 4 247 4 36
1 65 0 63 -3 -2 -4 -75 -60 -162 -125 -170 -129 -183 -140 -219 -170 l-24 -20
59 -170 c33 -93 73 -208 89 -255 17 -46 29 -86 27 -88 -2 -2 -11 4 -22 12 -10
9 -103 81 -206 161 -120 92 -193 142 -201 137 -7 -4 -50 -34 -95 -67 -45 -33
-136 -99 -201 -148 -66 -48 -120 -85 -120 -82 0 4 34 115 76 248 42 133 77
249 79 257 2 10 -56 57 -167 135 -94 66 -185 132 -204 146 l-34 27 252 -1 251
-1 34 105 c18 57 54 170 80 252 26 81 50 144 53 140 4 -5 28 -75 54 -158z"/>
</g>
</svg>
