<?xml version="1.0" standalone="no"?>
<!DOCTYPE svg PUBLIC "-//W3C//DTD SVG 20010904//EN"
 "http://www.w3.org/TR/2001/REC-SVG-20010904/DTD/svg10.dtd">
<svg version="1.0" xmlns="http://www.w3.org/2000/svg"
 width="260.000000pt" height="260.000000pt" viewBox="0 0 260.000000 260.000000"
 preserveAspectRatio="xMidYMid meet">
<metadata>
Created by potrace 1.14, written by Peter Selinger 2001-2017
</metadata>
<g transform="translate(0.000000,260.000000) scale(0.100000,-0.100000)"
fill="#000000" stroke="none">
<path d="M907 2378 c-129 -430 -215 -713 -226 -741 l-11 -29 -38 29 c-20 15
-45 33 -54 38 -9 6 -85 59 -168 118 -84 59 -153 107 -155 105 -1 -2 -12 -32
-23 -68 -11 -36 -46 -143 -76 -239 -64 -198 -69 -169 41 -248 32 -23 119 -87
193 -142 205 -152 244 -180 393 -290 75 -56 137 -103 137 -105 0 -2 -92 -70
-205 -152 -113 -81 -204 -148 -202 -149 1 -1 88 -67 192 -147 105 -79 196
-147 202 -151 8 -5 172 103 434 284 231 160 424 287 428 283 4 -5 41 -102 80
-215 40 -113 76 -211 81 -218 5 -9 65 31 208 138 l200 150 -18 58 c-10 32 -30
91 -44 130 -14 40 -23 73 -20 73 2 0 -2 13 -11 30 -8 16 -15 31 -15 32 1 2 -1
10 -4 18 -55 164 -206 627 -206 631 0 3 24 6 53 6 377 4 457 6 457 8 0 3 -29
96 -97 308 l-57 177 -116 1 c-63 0 -294 1 -513 2 l-398 2 6 25 c3 14 37 121
76 238 38 117 69 217 69 223 0 5 -104 9 -263 9 l-263 0 -67 -222z m516 -538
c61 -188 82 -240 95 -241 19 0 206 2 360 5 56 1 102 -1 102 -4 0 -3 -88 -70
-195 -150 -107 -79 -195 -147 -195 -150 0 -4 12 -40 26 -81 14 -41 27 -78 28
-84 2 -5 6 -17 9 -25 9 -25 54 -150 82 -229 14 -41 24 -75 23 -77 -2 -1 -41
27 -88 63 -47 35 -138 105 -203 155 l-118 90 -177 -128 c-97 -70 -192 -139
-211 -153 -22 -16 -33 -20 -29 -11 6 16 30 93 108 334 55 172 55 163 -2 196
-10 6 -82 56 -161 113 -78 56 -154 109 -167 118 -24 16 -11 17 219 17 134 1
247 4 251 9 6 7 92 268 142 431 7 23 15 42 18 42 3 0 40 -108 83 -240z"/>
</g>
</svg>
