<svg width="100" height="25" viewBox="0 0 100 25" fill="none" xmlns="http://www.w3.org/2000/svg">
<path d="M31.6807 5.00853C31.3211 3.67005 30.2623 2.61125 28.9238 2.25166C26.5065 1.59241 16.7776 1.59241 16.7776 1.59241C16.7776 1.59241 7.04864 1.61238 4.63138 2.27164C3.2929 2.63123 2.2341 3.69003 1.87451 5.02851C1.23524 7.44576 1.23524 12.5 1.23524 12.5C1.23524 12.5 1.23524 17.5543 1.89449 19.9915C2.25408 21.33 3.31288 22.3888 4.65136 22.7484C7.06861 23.4076 16.7976 23.4076 16.7976 23.4076C16.7976 23.4076 26.5265 23.4076 28.9438 22.7484C30.2823 22.3888 31.3411 21.33 31.7007 19.9915C32.3599 17.5743 32.3599 12.5 32.3599 12.5C32.3599 12.5 32.3399 7.44576 31.6807 5.00853Z" fill="#FF0000"/>
<path d="M21.7519 12.5L13.6811 7.82532V17.1747L21.7519 12.5Z" fill="white"/>
<path d="M46.384 21.4299C45.7647 21.0104 45.3252 20.3711 45.0655 19.4921C44.8058 18.6131 44.6859 17.4544 44.6859 15.9961V14.0183C44.6859 12.56 44.8257 11.3613 45.1254 10.4823C45.4251 9.58333 45.8845 8.94406 46.5238 8.54451C47.1631 8.14497 47.9822 7.92521 49.001 7.92521C49.9999 7.92521 50.8189 8.12499 51.4183 8.54451C52.0176 8.96404 52.4771 9.60331 52.7567 10.4823C53.0364 11.3613 53.1763 12.54 53.1763 13.9983V15.9761C53.1763 17.4344 53.0364 18.5931 52.7567 19.4721C52.4771 20.3511 52.0376 20.9904 51.4183 21.4099C50.799 21.8095 49.9599 22.0292 48.9211 22.0292C47.8423 22.0492 47.0033 21.8294 46.384 21.4299ZM49.8401 19.2923C50.0198 18.8528 50.0998 18.1136 50.0998 17.1148V12.8596C50.0998 11.8807 50.0198 11.1615 49.8401 10.722C49.6603 10.2626 49.3606 10.0428 48.9411 10.0428C48.5215 10.0428 48.2419 10.2626 48.0621 10.722C47.8823 11.1815 47.8024 11.8807 47.8024 12.8596V17.1148C47.8024 18.1136 47.8823 18.8528 48.0421 19.2923C48.2019 19.7318 48.5016 19.9516 48.9411 19.9516C49.3606 19.9516 49.6603 19.7318 49.8401 19.2923ZM93.6303 16.036V16.7352L93.7102 18.713C93.7702 19.1525 93.8701 19.4721 94.0299 19.6719C94.1897 19.8717 94.4494 19.9715 94.789 19.9715C95.2485 19.9715 95.5681 19.7917 95.728 19.4322C95.9078 19.0726 95.9877 18.4732 96.0076 17.6542L98.6646 17.814C98.6846 17.9339 98.6846 18.0937 98.6846 18.2934C98.6846 19.552 98.345 20.491 97.6458 21.1102C96.9466 21.7295 95.9877 22.0492 94.7291 22.0492C93.2108 22.0492 92.152 21.5697 91.5527 20.6308C90.9534 19.6919 90.6337 18.2135 90.6337 16.2358V13.8185C90.6337 11.7808 90.9534 10.2825 91.5727 9.3436C92.212 8.40467 93.2907 7.92521 94.809 7.92521C95.8678 7.92521 96.6669 8.12499 97.2263 8.50456C97.7856 8.88413 98.1852 9.48345 98.4249 10.3025C98.6646 11.1216 98.7645 12.2403 98.7645 13.6787V16.016H93.6303V16.036ZM94.0299 10.2825C93.8701 10.4823 93.7702 10.782 93.7102 11.2215C93.6503 11.661 93.6303 12.3202 93.6303 13.2192V14.1981H95.8678V13.2192C95.8678 12.3402 95.8478 11.681 95.7879 11.2215C95.728 10.762 95.6281 10.4424 95.4683 10.2626C95.3084 10.0828 95.0687 9.98288 94.7491 9.98288C94.4095 10.0029 94.1697 10.1027 94.0299 10.2825ZM38.9125 15.7763L35.4164 3.15063H38.473L39.6916 8.86415C40.0112 10.2825 40.231 11.4812 40.3908 12.4601H40.4707C40.5706 11.7409 40.8103 10.5622 41.1699 8.88413L42.4285 3.15063H45.485L41.949 15.7563V21.8095H38.9324V15.7763H38.9125Z" fill="white"/>
<path d="M63.085 8.18494V21.8294H60.6877L60.428 20.1514H60.3681C59.7089 21.4099 58.73 22.0492 57.4314 22.0492C56.5325 22.0492 55.8532 21.7495 55.4337 21.1502C54.9942 20.5509 54.7944 19.6319 54.7944 18.3734V8.18494H57.8709V18.1936C57.8709 18.7929 57.9309 19.2324 58.0707 19.4921C58.2106 19.7518 58.4303 19.8717 58.73 19.8717C58.9897 19.8717 59.2494 19.7918 59.4891 19.6319C59.7288 19.4721 59.9086 19.2524 60.0285 19.0126V8.18494H63.085Z" fill="white"/>
<path d="M78.8471 8.18494V21.8294H76.4498L76.1901 20.1514H76.1302C75.471 21.4099 74.4921 22.0492 73.1935 22.0492C72.2946 22.0492 71.6153 21.7495 71.1958 21.1502C70.7563 20.5509 70.5565 19.6319 70.5565 18.3734V8.18494H73.633V18.1936C73.633 18.7929 73.693 19.2324 73.8328 19.4921C73.9727 19.7518 74.1924 19.8717 74.4921 19.8717C74.7518 19.8717 75.0115 19.7918 75.2512 19.6319C75.4909 19.4721 75.6707 19.2524 75.7906 19.0126V8.18494H78.8471Z" fill="white"/>
<path d="M71.4355 5.62781H68.379V21.8294H65.3824V5.62781H62.3259V3.15062H71.4156V5.62781H71.4355ZM88.9956 10.3624C88.8158 9.50341 88.5162 8.88411 88.0966 8.48457C87.6771 8.105 87.1177 7.90522 86.3786 7.90522C85.8192 7.90522 85.2798 8.06504 84.8004 8.38468C84.3009 8.70432 83.9413 9.12384 83.6617 9.64325H83.6417V2.45142H80.685V21.8094H83.2222L83.5418 20.5109H83.6017C83.8415 20.9704 84.201 21.33 84.6605 21.6097C85.1442 21.8747 85.6873 22.0122 86.2387 22.0092C87.2776 22.0092 88.0367 21.5298 88.5361 20.5708C89.0156 19.6119 89.2753 18.1136 89.2753 16.0959V13.9384C89.2753 12.4201 89.1754 11.2215 88.9956 10.3624ZM86.1788 15.9361C86.1788 16.935 86.1388 17.7141 86.0589 18.2735C85.979 18.8328 85.8392 19.2324 85.6394 19.4721C85.4396 19.7118 85.1799 19.8317 84.8603 19.8317C84.6006 19.8317 84.3808 19.7718 84.1611 19.6519C83.9413 19.532 83.7815 19.3522 83.6417 19.1125V11.3613C83.7416 10.9817 83.9214 10.6821 84.1811 10.4423C84.4408 10.2026 84.7005 10.0828 85.0001 10.0828C85.3198 10.0828 85.5595 10.2026 85.7193 10.4423C85.8991 10.6821 85.999 11.1016 86.0789 11.6809C86.1388 12.2603 86.1788 13.0794 86.1788 14.1581V15.9361Z" fill="white"/>
</svg>
