<svg width="61" height="60" viewBox="0 0 61 60" fill="none" xmlns="http://www.w3.org/2000/svg">
<g clip-path="url(#clip0_112_3761)">
<path d="M55.5 22.5V15C55.5 10.865 52.135 7.5 48 7.5H33V0H28V7.5H13C8.865 7.5 5.5 10.865 5.5 15V22.5H0.5V37.5H5.5V52.5H37.2425L47.15 59.105C48.05 59.705 49.0875 60.0075 50.1275 60.0075C50.9975 60.0075 51.8675 59.7975 52.665 59.37C54.4125 58.4325 55.5 56.62 55.5 54.635V37.4975H60.5V22.4975H55.5V22.5ZM39.25 20C41.32 20 43 21.68 43 23.75C43 25.82 41.32 27.5 39.25 27.5C37.18 27.5 35.5 25.82 35.5 23.75C35.5 21.68 37.18 20 39.25 20ZM21.75 20C23.82 20 25.5 21.68 25.5 23.75C25.5 25.82 23.82 27.5 21.75 27.5C19.68 27.5 18 25.82 18 23.75C18 21.68 19.68 20 21.75 20ZM30.5 42.5C22.7325 42.5 16.5925 37.095 16.335 36.865L19.66 33.1325C19.71 33.1775 24.6725 37.5025 30.5 37.5025C36.3275 37.5025 41.29 33.1775 41.34 33.1325L44.665 36.865C44.4075 37.095 38.2675 42.5 30.5 42.5Z" fill="#52EA73"/>
</g>
<defs>
<clipPath id="clip0_112_3761">
<rect width="60" height="60" fill="white" transform="translate(0.5)"/>
</clipPath>
</defs>
</svg>
