<svg width="48" height="48" viewBox="0 0 48 48" fill="none" xmlns="http://www.w3.org/2000/svg">
<g clip-path="url(#clip0_112_2840)">
<path d="M39.888 5.284L24 0.0179996L8.112 5.284C6.91495 5.68083 5.87337 6.44476 5.1352 7.46727C4.39704 8.48978 3.99983 9.71888 4 10.98V24C4 39.048 22.4 47.358 23.188 47.704L23.896 48.018L24.632 47.774C25.424 47.51 44 41.154 44 24V10.98C44.0002 9.71888 43.603 8.48978 42.8648 7.46727C42.1266 6.44476 41.0851 5.68083 39.888 5.284ZM24.888 27.978C24.5384 28.33 24.1223 28.609 23.664 28.7989C23.2056 28.9887 22.7141 29.0856 22.218 29.084H22.152C21.6458 29.0762 21.1464 28.9659 20.684 28.7596C20.2217 28.5534 19.806 28.2555 19.462 27.884L14.85 23.084L17.736 20.32L22.224 25L32.586 14.638L35.414 17.466L24.888 27.978Z" fill="#52EA73"/>
</g>
<defs>
<clipPath id="clip0_112_2840">
<rect width="48" height="48" fill="white"/>
</clipPath>
</defs>
</svg>
