<svg width="48" height="48" viewBox="0 0 48 48" fill="none" xmlns="http://www.w3.org/2000/svg">
<g clip-path="url(#clip0_112_2864)">
<path d="M42 12H10C8.282 12 6.656 11.256 5.53 10.002C6.63 8.774 8.228 8 10 8H46C48.616 7.988 48.614 4.01 46 4H10C4.478 4 0 8.478 0 14V34C0 39.522 4.478 44 10 44H42C45.314 44 48 41.314 48 38V18C48 14.686 45.314 12 42 12ZM40 30C37.384 29.988 37.384 26.012 40 26C42.616 26.012 42.616 29.988 40 30Z" fill="#52EA73"/>
</g>
<defs>
<clipPath id="clip0_112_2864">
<rect width="48" height="48" fill="white"/>
</clipPath>
</defs>
</svg>
