<svg width="133" height="24" viewBox="0 0 133 24" fill="none" xmlns="http://www.w3.org/2000/svg">
<mask id="mask0_232_90" style="mask-type:luminance" maskUnits="userSpaceOnUse" x="0" y="0" width="133" height="24">
<path d="M132.555 0H0V24H132.555V0Z" fill="white"/>
</mask>
<g mask="url(#mask0_232_90)">
<mask id="mask1_232_90" style="mask-type:alpha" maskUnits="userSpaceOnUse" x="0" y="0" width="25" height="25">
<path d="M24.4609 0H0V24.0131H24.4609V0Z" fill="#FF0000"/>
</mask>
<g mask="url(#mask1_232_90)">
<path d="M5.78491 10.0169L8.82659 0.0228882H14.1494L10.8905 10.0169H5.78491Z" fill="#52EA73"/>
<path d="M1.61731 6.9762L9.98951 12.8704L8.35655 17.9366L0.0510254 11.8356L1.61731 6.9762Z" fill="#52EA73"/>
<path d="M4.18115 20.9074L12.5787 14.8697L16.8195 18.0865L8.24892 23.9929L4.18115 20.9074Z" fill="#52EA73"/>
<path d="M18.4235 22.7238L14.9595 12.9785L19.2288 9.79955L22.5186 19.6746L18.4235 22.7238Z" fill="#52EA73"/>
<path d="M24.4553 9.85807L14.114 10.0258L12.4663 4.96439L22.8749 5.00325L24.4553 9.85807Z" fill="#52EA73"/>
</g>
<path d="M36.5411 9.50827C36.4718 9.439 36.3433 9.34505 36.1553 9.22633C35.9772 9.10761 35.7546 8.99385 35.4876 8.88504C35.2303 8.77622 34.9484 8.68219 34.6417 8.6031C34.335 8.51406 34.0235 8.46954 33.7069 8.46954C33.1529 8.46954 32.7324 8.57338 32.4456 8.78118C32.1685 8.98889 32.0301 9.28074 32.0301 9.65662C32.0301 9.94351 32.1191 10.171 32.2972 10.3392C32.4753 10.5074 32.7423 10.6509 33.0985 10.7696C33.4546 10.8883 33.8998 11.0169 34.4339 11.1554C35.1264 11.3236 35.725 11.5313 36.2295 11.7786C36.7439 12.0161 37.1347 12.3326 37.4017 12.7283C37.6787 13.1141 37.8173 13.6285 37.8173 14.2715C37.8173 14.8354 37.7133 15.3201 37.5056 15.7257C37.2979 16.1214 37.011 16.4429 36.6449 16.6902C36.279 16.9376 35.8634 17.1205 35.3985 17.2393C34.9336 17.3481 34.4389 17.4025 33.9147 17.4025C33.3903 17.4025 32.866 17.3481 32.3417 17.2393C31.8174 17.1304 31.3129 16.9771 30.8281 16.7792C30.3434 16.5715 29.8983 16.3242 29.4927 16.0374L30.3978 14.2715C30.4868 14.3605 30.6451 14.4793 30.8726 14.6276C31.1002 14.7661 31.3771 14.9095 31.7037 15.058C32.0301 15.1964 32.3863 15.3152 32.772 15.4141C33.1578 15.5131 33.5486 15.5625 33.9443 15.5625C34.4983 15.5625 34.9187 15.4686 35.2056 15.2806C35.4925 15.0926 35.6359 14.8255 35.6359 14.4793C35.6359 14.1627 35.5221 13.9154 35.2946 13.7373C35.0671 13.5592 34.7506 13.4059 34.3449 13.2773C33.9393 13.1388 33.4596 12.9904 32.9055 12.8321C32.2428 12.6442 31.6888 12.4364 31.2436 12.2089C30.7985 11.9715 30.467 11.6748 30.2494 11.3186C30.0318 10.9624 29.923 10.5173 29.923 9.98306C29.923 9.26092 30.0911 8.65751 30.4275 8.17277C30.7737 7.67814 31.2387 7.30717 31.8224 7.05986C32.406 6.80265 33.054 6.67405 33.7662 6.67405C34.2608 6.67405 34.7258 6.72845 35.1611 6.83727C35.6063 6.94609 36.0217 7.08953 36.4076 7.2676C36.7934 7.44566 37.1396 7.63857 37.4462 7.84631L36.5411 9.50827ZM42.7924 17.4322C42.1593 17.4322 41.5905 17.3283 41.086 17.1205C40.5814 16.9029 40.1511 16.6061 39.795 16.2302C39.4388 15.8444 39.1619 15.4092 38.964 14.9244C38.7761 14.4397 38.682 13.9302 38.682 13.396C38.682 12.664 38.8452 11.9962 39.1718 11.3928C39.5081 10.7794 39.9829 10.2898 40.5962 9.92378C41.2096 9.55772 41.9367 9.37469 42.7776 9.37469C43.6184 9.37469 44.3406 9.55772 44.9441 9.92378C45.5475 10.2898 45.9976 10.7696 46.2944 11.3631L44.3505 11.9567C44.1823 11.6698 43.9597 11.4522 43.6827 11.3037C43.4058 11.1455 43.0991 11.0663 42.7627 11.0663C42.3868 11.0663 42.0406 11.1653 41.724 11.3631C41.4173 11.5511 41.175 11.8231 40.9969 12.1793C40.8188 12.5255 40.7298 12.931 40.7298 13.396C40.7298 13.8511 40.8188 14.2567 40.9969 14.6128C41.1849 14.9591 41.4322 15.2361 41.7388 15.4438C42.0455 15.6417 42.3868 15.7406 42.7627 15.7406C43.0001 15.7406 43.2227 15.701 43.4304 15.6219C43.6481 15.5427 43.841 15.4339 44.0092 15.2954C44.1773 15.1569 44.301 14.9986 44.3802 14.8206L46.324 15.4141C46.1459 15.7999 45.8838 16.1462 45.5376 16.4528C45.2012 16.7595 44.8006 17.0018 44.3356 17.1799C43.8805 17.3481 43.3661 17.4322 42.7924 17.4322ZM52.1773 11.2295C51.5738 11.2295 51.0347 11.3482 50.5598 11.5857C50.085 11.8132 49.7437 12.1446 49.5359 12.5799V17.2838H47.5475V9.50827H49.3727V11.1702C49.6497 10.636 50.0009 10.2155 50.4263 9.90892C50.8516 9.60222 51.3018 9.43405 51.7766 9.40441C51.8854 9.40441 51.9695 9.40441 52.0288 9.40441C52.0882 9.40441 52.1377 9.40936 52.1773 9.41919V11.2295ZM56.7755 17.4322C56.1424 17.4322 55.5736 17.3283 55.0691 17.1205C54.5646 16.9029 54.1343 16.6061 53.7781 16.2302C53.4319 15.8543 53.1648 15.424 52.9768 14.9393C52.7888 14.4545 52.6949 13.945 52.6949 13.4109C52.6949 12.8668 52.7888 12.3524 52.9768 11.8676C53.1648 11.3829 53.4319 10.9525 53.7781 10.5767C54.1343 10.2008 54.5646 9.90892 55.0691 9.70112C55.5736 9.4835 56.1424 9.37469 56.7755 9.37469C57.4087 9.37469 57.9726 9.4835 58.4672 9.70112C58.9717 9.90892 59.4021 10.2008 59.7581 10.5767C60.1143 10.9525 60.3814 11.3829 60.5594 11.8676C60.7474 12.3524 60.8414 12.8668 60.8414 13.4109C60.8414 13.945 60.7474 14.4545 60.5594 14.9393C60.3814 15.424 60.1143 15.8543 59.7581 16.2302C59.4119 16.6061 58.9865 16.9029 58.482 17.1205C57.9775 17.3283 57.4087 17.4322 56.7755 17.4322ZM54.7426 13.4109C54.7426 13.8659 54.8316 14.2715 55.0097 14.6276C55.1878 14.9739 55.4302 15.2459 55.7368 15.4438C56.0435 15.6417 56.3898 15.7406 56.7755 15.7406C57.1514 15.7406 57.4927 15.6417 57.7994 15.4438C58.1061 15.2361 58.3484 14.9591 58.5265 14.6128C58.7145 14.2567 58.8085 13.8511 58.8085 13.396C58.8085 12.9509 58.7145 12.5502 58.5265 12.194C58.3484 11.838 58.1061 11.561 57.7994 11.3631C57.4927 11.1653 57.1514 11.0663 56.7755 11.0663C56.3898 11.0663 56.0435 11.1702 55.7368 11.378C55.4302 11.5758 55.1878 11.8528 55.0097 12.2089C54.8316 12.5552 54.7426 12.9558 54.7426 13.4109ZM65.7744 17.4322C65.1414 17.4322 64.5726 17.3283 64.068 17.1205C63.5634 16.9029 63.1332 16.6061 62.777 16.2302C62.4308 15.8543 62.1637 15.424 61.9758 14.9393C61.7878 14.4545 61.6938 13.945 61.6938 13.4109C61.6938 12.8668 61.7878 12.3524 61.9758 11.8676C62.1637 11.3829 62.4308 10.9525 62.777 10.5767C63.1332 10.2008 63.5634 9.90892 64.068 9.70112C64.5726 9.4835 65.1414 9.37469 65.7744 9.37469C66.4076 9.37469 66.9714 9.4835 67.4661 9.70112C67.9706 9.90892 68.4009 10.2008 68.7571 10.5767C69.1132 10.9525 69.3803 11.3829 69.5584 11.8676C69.7463 12.3524 69.8403 12.8668 69.8403 13.4109C69.8403 13.945 69.7463 14.4545 69.5584 14.9393C69.3803 15.424 69.1132 15.8543 68.7571 16.2302C68.4109 16.6061 67.9854 16.9029 67.4809 17.1205C66.9764 17.3283 66.4076 17.4322 65.7744 17.4322ZM63.7415 13.4109C63.7415 13.8659 63.8306 14.2715 64.0087 14.6276C64.1867 14.9739 64.4291 15.2459 64.7358 15.4438C65.0424 15.6417 65.3886 15.7406 65.7744 15.7406C66.1504 15.7406 66.4917 15.6417 66.7983 15.4438C67.105 15.2361 67.3474 14.9591 67.5254 14.6128C67.7134 14.2567 67.8073 13.8511 67.8073 13.396C67.8073 12.9509 67.7134 12.5502 67.5254 12.194C67.3474 11.838 67.105 11.561 66.7983 11.3631C66.4917 11.1653 66.1504 11.0663 65.7744 11.0663C65.3886 11.0663 65.0424 11.1702 64.7358 11.378C64.4291 11.5758 64.1867 11.8528 64.0087 12.2089C63.8306 12.5552 63.7415 12.9558 63.7415 13.4109ZM74.2244 17.3283C73.71 17.3283 73.2351 17.2293 72.7999 17.0315C72.3744 16.8238 72.0035 16.5369 71.6869 16.1709C71.3803 15.8049 71.1428 15.3844 70.9747 14.9095C70.8065 14.4348 70.7224 13.9302 70.7224 13.396C70.7224 12.8321 70.8114 12.3078 70.9895 11.8231C71.1676 11.3384 71.4149 10.913 71.7315 10.547C72.0579 10.171 72.4388 9.88415 72.874 9.68635C73.3192 9.47854 73.8089 9.37469 74.343 9.37469C74.9465 9.37469 75.4757 9.51322 75.9308 9.7902C76.3859 10.0573 76.7618 10.4184 77.0585 10.8734V9.50827H78.7947V16.9128C78.7947 17.6844 78.6067 18.3423 78.2309 18.8864C77.8648 19.4403 77.3553 19.8608 76.7025 20.1477C76.0495 20.4445 75.3076 20.5929 74.4766 20.5929C73.6358 20.5929 72.9235 20.4494 72.3398 20.1626C71.7562 19.8856 71.2566 19.4899 70.8411 18.9755L71.9243 17.9218C72.2211 18.2879 72.5921 18.5748 73.0373 18.7825C73.4924 18.9902 73.9721 19.0941 74.4766 19.0941C74.902 19.0941 75.2878 19.015 75.6341 18.8567C75.9902 18.7083 76.2721 18.4709 76.4799 18.1444C76.6975 17.8279 76.8063 17.4173 76.8063 16.9128V15.9334C76.5491 16.3786 76.1831 16.7248 75.7082 16.9722C75.2433 17.2096 74.7486 17.3283 74.2244 17.3283ZM74.8921 15.7406C75.1098 15.7406 75.3175 15.7059 75.5154 15.6367C75.7132 15.5675 75.8962 15.4734 76.0644 15.3548C76.2325 15.2361 76.3809 15.0975 76.5095 14.9393C76.6382 14.7711 76.7371 14.6029 76.8063 14.4348V12.5799C76.6876 12.2732 76.5194 12.0061 76.3018 11.7786C76.0941 11.5511 75.8567 11.378 75.5895 11.2592C75.3323 11.1306 75.0603 11.0663 74.7734 11.0663C74.4667 11.0663 74.1897 11.1306 73.9425 11.2592C73.6951 11.3879 73.4825 11.5708 73.3044 11.8083C73.1263 12.0358 72.9878 12.293 72.8889 12.5799C72.7999 12.8569 72.7554 13.1488 72.7554 13.4554C72.7554 13.772 72.8098 14.0687 72.9186 14.3457C73.0274 14.6227 73.1757 14.865 73.3637 15.0729C73.5615 15.2806 73.7891 15.4438 74.0463 15.5625C74.3134 15.6812 74.5953 15.7406 74.8921 15.7406ZM84.1929 17.4322C83.5697 17.4322 83.0058 17.3283 82.5013 17.1205C81.9968 16.9029 81.5664 16.6111 81.2103 16.2451C80.8542 15.8691 80.5772 15.4438 80.3793 14.9689C80.1913 14.4842 80.0974 13.9747 80.0974 13.4405C80.0974 12.6986 80.2606 12.0209 80.587 11.4076C80.9234 10.7943 81.3983 10.3046 82.0116 9.93856C82.6348 9.56267 83.3669 9.37469 84.2077 9.37469C85.0585 9.37469 85.7857 9.56267 86.3886 9.93856C86.9925 10.3046 87.4528 10.7943 87.7689 11.4076C88.0951 12.0111 88.2591 12.664 88.2591 13.3664C88.2591 13.4851 88.254 13.6087 88.2437 13.7373C88.2343 13.856 88.2241 13.9549 88.2138 14.0341H82.2045C82.2441 14.4298 82.3578 14.7761 82.5458 15.0729C82.7436 15.3696 82.991 15.5971 83.2878 15.7554C83.5944 15.9038 83.9209 15.978 84.2671 15.978C84.6628 15.978 85.0338 15.884 85.38 15.6961C85.7361 15.4982 85.9787 15.241 86.1068 14.9244L87.8133 15.3993C87.6254 15.795 87.3538 16.1462 86.9976 16.4528C86.6508 16.7595 86.2409 17.0018 85.766 17.1799C85.291 17.3481 84.7667 17.4322 84.1929 17.4322ZM82.16 12.7728H86.2255C86.1862 12.3771 86.0726 12.0358 85.8847 11.7489C85.7062 11.4522 85.4688 11.2247 85.1722 11.0663C84.8755 10.8981 84.5441 10.8141 84.1781 10.8141C83.8219 10.8141 83.4955 10.8981 83.1987 11.0663C82.9118 11.2247 82.6744 11.4522 82.4865 11.7489C82.3084 12.0358 82.1996 12.3771 82.16 12.7728ZM92.5894 11.9418C92.5894 11.2988 92.7038 10.6706 92.931 10.0573C93.1684 9.43405 93.5101 8.87017 93.9551 8.36567C94.4 7.85126 94.9441 7.44566 95.5872 7.14889C96.2304 6.84222 96.9623 6.68888 97.7831 6.68888C98.7525 6.68888 99.5886 6.90158 100.291 7.32695C101.003 7.75233 101.533 8.30631 101.878 8.98889L100.306 10.0721C100.128 9.67644 99.8953 9.36478 99.6083 9.13725C99.3213 8.8999 99.0147 8.73668 98.6884 8.6476C98.3622 8.54869 98.0402 8.49922 97.7242 8.49922C97.2091 8.49922 96.759 8.6031 96.3738 8.81082C95.998 9.01862 95.6812 9.29064 95.4241 9.62699C95.167 9.96333 94.974 10.3392 94.845 10.7547C94.7263 11.1702 94.6674 11.5857 94.6674 12.0012C94.6674 12.4662 94.7417 12.9163 94.8894 13.3515C95.038 13.7769 95.2456 14.1578 95.5129 14.4941C95.7896 14.8206 96.1168 15.0827 96.4926 15.2806C96.8778 15.4686 97.2988 15.5625 97.7532 15.5625C98.0803 15.5625 98.4117 15.5081 98.7482 15.3993C99.0839 15.2905 99.3956 15.1173 99.6826 14.8799C99.9696 14.6425 100.192 14.3359 100.351 13.9599L102.027 14.9244C101.82 15.4487 101.478 15.8939 101.003 16.26C100.538 16.6259 100.014 16.9029 99.4306 17.0909C98.8464 17.2789 98.2682 17.3728 97.6943 17.3728C96.9427 17.3728 96.2551 17.2195 95.6316 16.9128C95.0081 16.5963 94.4692 16.1808 94.014 15.6664C93.569 15.142 93.218 14.5584 92.9609 13.9154C92.7132 13.2625 92.5894 12.6046 92.5894 11.9418ZM110.434 17.2838H108.446V12.9212C108.446 12.3177 108.327 11.8676 108.089 11.5708C107.862 11.2741 107.545 11.1257 107.14 11.1257C106.902 11.1257 106.65 11.1949 106.383 11.3335C106.116 11.4719 105.874 11.6649 105.656 11.9121C105.449 12.1495 105.295 12.4265 105.196 12.7431V17.2838H103.207V6.45146H105.196V10.9476C105.483 10.453 105.874 10.0672 106.368 9.7902C106.863 9.51322 107.402 9.37469 107.986 9.37469C108.49 9.37469 108.901 9.46377 109.218 9.64185C109.534 9.81002 109.781 10.0424 109.959 10.3392C110.138 10.6261 110.261 10.9525 110.331 11.3186C110.4 11.6748 110.434 12.0457 110.434 12.4315V17.2838ZM112.163 17.2838V9.50827H114.152V17.2838H112.163ZM112.163 8.42502V6.45146H114.152V8.42502H112.163ZM123.172 17.2838H121.184V12.9212C121.184 12.298 121.074 11.8429 120.857 11.556C120.639 11.2692 120.337 11.1257 119.952 11.1257C119.685 11.1257 119.412 11.1949 119.135 11.3335C118.868 11.4719 118.626 11.6649 118.409 11.9121C118.191 12.1495 118.033 12.4265 117.934 12.7431V17.2838H115.945V9.50827H117.741V10.9476C117.939 10.6112 118.191 10.3293 118.497 10.1018C118.804 9.86442 119.155 9.68635 119.551 9.56763C119.957 9.439 120.382 9.37469 120.827 9.37469C121.312 9.37469 121.708 9.46377 122.015 9.64185C122.331 9.81002 122.568 10.0424 122.727 10.3392C122.895 10.6261 123.009 10.9525 123.068 11.3186C123.137 11.6846 123.172 12.0556 123.172 12.4315V17.2838ZM124.367 14.9838C124.367 14.4793 124.505 14.0391 124.782 13.6631C125.069 13.2773 125.464 12.9806 125.969 12.7728C126.474 12.5651 127.052 12.4612 127.705 12.4612C128.032 12.4612 128.363 12.4859 128.7 12.5353C129.036 12.5849 129.327 12.664 129.575 12.7728V12.3573C129.575 11.8627 129.426 11.4818 129.13 11.2147C128.843 10.9476 128.413 10.8141 127.839 10.8141C127.413 10.8141 127.008 10.8883 126.622 11.0367C126.236 11.185 125.831 11.4026 125.405 11.6895L124.767 10.3837C125.281 10.0474 125.806 9.79516 126.34 9.62699C126.884 9.45882 127.453 9.37469 128.046 9.37469C129.155 9.37469 130.015 9.65167 130.628 10.2057C131.252 10.7597 131.563 11.5511 131.563 12.5799V15.058C131.563 15.2657 131.598 15.4141 131.668 15.5031C131.746 15.5921 131.87 15.6465 132.038 15.6664V17.2838C131.86 17.3135 131.697 17.3382 131.549 17.358C131.41 17.3778 131.291 17.3877 131.193 17.3877C130.796 17.3877 130.495 17.2986 130.287 17.1205C130.089 16.9425 129.965 16.7248 129.916 16.4677L129.871 16.067C129.536 16.5023 129.115 16.8386 128.611 17.076C128.106 17.3135 127.592 17.4322 127.067 17.4322C126.552 17.4322 126.088 17.3283 125.673 17.1205C125.267 16.9029 124.945 16.6111 124.708 16.2451C124.48 15.8691 124.367 15.4487 124.367 14.9838ZM129.204 15.3844C129.313 15.2657 129.402 15.147 129.471 15.0283C129.54 14.9095 129.575 14.8007 129.575 14.7018V13.9154C129.338 13.8165 129.08 13.7423 128.803 13.6928C128.526 13.6334 128.264 13.6038 128.017 13.6038C127.502 13.6038 127.077 13.7176 126.74 13.945C126.414 14.1627 126.251 14.4545 126.251 14.8206C126.251 15.0184 126.306 15.2063 126.414 15.3844C126.523 15.5625 126.681 15.7059 126.889 15.8147C127.096 15.9236 127.344 15.978 127.631 15.978C127.927 15.978 128.22 15.9236 128.507 15.8147C128.793 15.6961 129.026 15.5526 129.204 15.3844Z" fill="white"/>
</g>
</svg>
