<svg width="140" height="24" viewBox="0 0 140 24" fill="none" xmlns="http://www.w3.org/2000/svg">
<g clip-path="url(#clip0_85_1085)">
<path d="M19.4288 23.5L12.0005 17.8213L4.57219 23.5L7.42433 14.329L0 8.68651H9.16626L12.0005 -0.5L14.8347 8.68651H24L16.5767 14.329L19.4288 23.5Z" fill="#52EA73"/>
</g>
<g clip-path="url(#clip1_85_1085)">
<path d="M48.4288 24.5L41.0005 18.8213L33.5722 24.5L36.4243 15.329L29 9.68651H38.1663L41.0005 0.5L43.8347 9.68651H53L45.5767 15.329L48.4288 24.5Z" fill="#52EA73"/>
</g>
<g clip-path="url(#clip2_85_1085)">
<path d="M77.4288 24.5L70.0005 18.8213L62.5722 24.5L65.4243 15.329L58 9.68651H67.1663L70.0005 0.5L72.8347 9.68651H82L74.5767 15.329L77.4288 24.5Z" fill="#52EA73"/>
</g>
<g clip-path="url(#clip3_85_1085)">
<path d="M106.429 24.5L99.0005 18.8213L91.5722 24.5L94.4243 15.329L87 9.68651H96.1663L99.0005 0.5L101.835 9.68651H111L103.577 15.329L106.429 24.5Z" fill="#52EA73"/>
</g>
<g clip-path="url(#clip4_85_1085)">
<path d="M135.429 24.5L128 18.8213L120.572 24.5L123.424 15.329L116 9.68651H125.166L128 0.5L130.835 9.68651H140L132.577 15.329L135.429 24.5Z" fill="#52EA73"/>
</g>
<defs>
<clipPath id="clip0_85_1085">
<rect width="24" height="24" fill="white"/>
</clipPath>
<clipPath id="clip1_85_1085">
<rect width="24" height="24" fill="white" transform="translate(29)"/>
</clipPath>
<clipPath id="clip2_85_1085">
<rect width="24" height="24" fill="white" transform="translate(58)"/>
</clipPath>
<clipPath id="clip3_85_1085">
<rect width="24" height="24" fill="white" transform="translate(87)"/>
</clipPath>
<clipPath id="clip4_85_1085">
<rect width="24" height="24" fill="white" transform="translate(116)"/>
</clipPath>
</defs>
</svg>
