<svg width="24" height="24" viewBox="0 0 24 24" fill="none" xmlns="http://www.w3.org/2000/svg">
<path d="M17.9934 9.1006C17.9934 9.96469 17.8371 10.3922 17.5181 10.3922H13.5954V19.3561C13.5954 19.5511 13.4598 19.6828 13.1783 19.7577C12.7911 19.8394 12.3958 19.8753 12.0003 19.8649C11.5987 19.879 11.1969 19.8399 10.8055 19.7487C10.5369 19.6751 10.4013 19.542 10.4013 19.3612V10.3987H6.47863C6.16089 10.3987 6.00331 9.96469 6.00331 9.10706C5.98863 8.77104 6.02787 8.43483 6.11956 8.11122C6.19705 7.90456 6.31717 7.80123 6.47863 7.80123H17.5181C17.6873 7.80123 17.8113 7.90456 17.8823 8.1151C17.9703 8.43804 18.0078 8.77265 17.9934 9.10706V9.1006ZM6.47863 6.6039C6.16089 6.6039 6.00331 6.16992 6.00331 5.30583C5.98777 4.96977 6.02703 4.63343 6.11956 4.30999C6.19576 4.10333 6.31717 4 6.47863 4H17.5181C17.6873 4 17.81 4.10462 17.8862 4.31386C17.9734 4.63695 18.0109 4.97145 17.9973 5.30583C17.9973 6.16992 17.8397 6.6039 17.522 6.6039H6.47863Z" fill="#52EA73"/>
</svg>
