<svg width="24" height="24" viewBox="0 0 24 24" fill="none" xmlns="http://www.w3.org/2000/svg">
<path fill-rule="evenodd" clip-rule="evenodd" d="M6 11.238H7.764V3H12.311C13.155 3 13.925 3.099 14.621 3.297C15.317 3.495 15.913 3.797 16.41 4.201C16.907 4.605 17.296 5.118 17.578 5.737C17.859 6.357 18 7.097 18 7.958C18 8.819 17.85 9.568 17.553 10.205C17.272 10.8194 16.8556 11.3623 16.335 11.793C15.8003 12.2261 15.1836 12.5469 14.522 12.736C13.7873 12.9481 13.0257 13.0525 12.261 13.046H9.751V15.654H13.751V17.359H9.751V21H7.764V17.359H6V15.654H7.764V13.046H6V11.238ZM12.31 11.238C13.453 11.238 14.352 10.967 15.006 10.425C15.66 9.882 15.988 9.06 15.988 7.958C15.988 6.857 15.66 6.056 15.006 5.557C14.352 5.057 13.453 4.807 12.311 4.807H9.751V11.238H12.31Z" fill="#52EA73"/>
</svg>
