<svg width="24" height="24" viewBox="0 0 24 24" fill="none" xmlns="http://www.w3.org/2000/svg">
<g id="usd-svgrepo-com 1">
<g id="Group">
<path id="Vector" fill-rule="evenodd" clip-rule="evenodd" d="M18 15.1422C18 17.5145 16.0745 19.0892 13.2314 19.3265V21.4615H11.2837V19.3052C9.36063 19.0884 7.53349 18.3497 6 17.1692L7.43262 15.2068C8.70923 16.1991 9.91754 16.8462 11.3732 17.0622V12.8345C8.10462 12.0148 6.58246 10.8286 6.58246 8.39169C6.58246 6.06277 8.48492 4.46677 11.2837 4.25077V3H13.2314V4.29415C14.7537 4.46324 16.205 5.0285 17.4406 5.93354L16.1862 7.96062C15.2012 7.24892 14.1942 6.79569 13.1418 6.58062V10.6782C16.5452 11.4978 18 12.8132 18 15.1422ZM11.3723 10.2249V6.42923C9.96277 6.53723 9.22431 7.29231 9.22431 8.24123C9.22431 9.14585 9.64892 9.72923 11.3732 10.2258L11.3723 10.2249ZM15.3582 15.2926C15.3582 14.3234 14.8874 13.7409 13.1418 13.2443V17.1489C14.5523 17.04 15.3582 16.3283 15.3582 15.2935V15.2926Z" fill="#52EA73"/>
</g>
</g>
</svg>
